<svg id="V_Primary" data-name="V Primary" xmlns="http://www.w3.org/2000/svg" xmlns:xlink="http://www.w3.org/1999/xlink" viewBox="0 0 2834.65 2595.18"><defs><style>.cls-1{fill:#262626;}.cls-2{fill:url(#名称未設定グラデーション_19);}.cls-3{fill:url(#名称未設定グラデーション_25);}.cls-4{fill:url(#名称未設定グラデーション_25-2);}.cls-5{fill:url(#名称未設定グラデーション_25-3);}.cls-6{fill:url(#名称未設定グラデーション_19-2);}.cls-7{fill:url(#名称未設定グラデーション_2);}.cls-8{fill:url(#名称未設定グラデーション_14);}.cls-9{fill:url(#名称未設定グラデーション_16);}.cls-10{fill:#1a1a1a;}.cls-11{fill:url(#名称未設定グラデーション_4);}.cls-12{fill:url(#名称未設定グラデーション_220);}.cls-13{fill:url(#名称未設定グラデーション_71);}.cls-14{fill:url(#名称未設定グラデーション_218);}.cls-15{fill:url(#名称未設定グラデーション_7);}.cls-16{fill:none;}.cls-17{fill:url(#名称未設定グラデーション_135);}.cls-18,.cls-89{fill:#fff;}.cls-19{fill:url(#名称未設定グラデーション_25-4);}.cls-20{fill:url(#名称未設定グラデーション_25-5);}.cls-21{fill:url(#名称未設定グラデーション_25-6);}.cls-22{fill:url(#名称未設定グラデーション_25-7);}.cls-23{fill:url(#名称未設定グラデーション_25-8);}.cls-24{fill:url(#名称未設定グラデーション_25-9);}.cls-25{fill:url(#名称未設定グラデーション_19-3);}.cls-26{fill:url(#名称未設定グラデーション_19-4);}.cls-27{fill:url(#名称未設定グラデーション_25-10);}.cls-28{fill:url(#名称未設定グラデーション_71-2);}.cls-29{fill:url(#名称未設定グラデーション_25-11);}.cls-30{fill:url(#名称未設定グラデーション_218-2);}.cls-31{fill:url(#名称未設定グラデーション_25-12);}.cls-32{fill:url(#名称未設定グラデーション_7-2);}.cls-33{fill:url(#名称未設定グラデーション_25-13);}.cls-34{fill:url(#名称未設定グラデーション_83);}.cls-35{fill:url(#名称未設定グラデーション_25-14);}.cls-36{fill:url(#名称未設定グラデーション_218-3);}.cls-37{fill:url(#名称未設定グラデーション_25-15);}.cls-38{fill:url(#名称未設定グラデーション_25-16);}.cls-39{fill:url(#名称未設定グラデーション_25-17);}.cls-40{fill:url(#名称未設定グラデーション_25-18);}.cls-41{fill:url(#名称未設定グラデーション_25-19);}.cls-42{fill:url(#名称未設定グラデーション_135-2);}.cls-43{fill:url(#名称未設定グラデーション_25-20);}.cls-44{fill:url(#名称未設定グラデーション_135-3);}.cls-45{fill:url(#名称未設定グラデーション_25-21);}.cls-46{fill:url(#名称未設定グラデーション_210);}.cls-47{fill:url(#名称未設定グラデーション_25-22);}.cls-48{fill:url(#名称未設定グラデーション_23);}.cls-49{fill:url(#名称未設定グラデーション_24);}.cls-50{fill:url(#名称未設定グラデーション_19-5);}.cls-51{fill:url(#名称未設定グラデーション_38);}.cls-52{fill:url(#名称未設定グラデーション_38-2);}.cls-53{fill:url(#名称未設定グラデーション_38-3);}.cls-54{fill:url(#名称未設定グラデーション_38-4);}.cls-55{fill:url(#名称未設定グラデーション_38-5);}.cls-56{fill:url(#名称未設定グラデーション_38-6);}.cls-57{fill:url(#名称未設定グラデーション_28);}.cls-58{fill:url(#名称未設定グラデーション_19-6);}.cls-59{fill:url(#名称未設定グラデーション_220-2);}.cls-60,.cls-61,.cls-62,.cls-63,.cls-64,.cls-65{opacity:0.5;}.cls-60{fill:url(#名称未設定グラデーション_22);}.cls-61{fill:url(#名称未設定グラデーション_22-2);}.cls-62{fill:url(#名称未設定グラデーション_22-3);}.cls-63{fill:url(#名称未設定グラデーション_22-4);}.cls-64{fill:url(#名称未設定グラデーション_22-5);}.cls-65{fill:url(#名称未設定グラデーション_22-6);}.cls-66,.cls-67,.cls-68,.cls-69,.cls-70,.cls-71,.cls-72,.cls-73,.cls-74,.cls-75,.cls-76,.cls-77,.cls-78,.cls-79,.cls-80,.cls-81,.cls-83,.cls-84,.cls-85,.cls-86,.cls-87,.cls-89,.cls-90,.cls-92{fill-rule:evenodd;}.cls-66{fill:url(#linear-gradient);}.cls-67{fill:url(#名称未設定グラデーション_11);}.cls-68{fill:url(#名称未設定グラデーション_10);}.cls-69{fill:url(#名称未設定グラデーション_39);}.cls-70{opacity:0.74;fill:url(#linear-gradient-2);}.cls-71{fill:url(#linear-gradient-3);}.cls-72{fill:url(#linear-gradient-4);}.cls-73,.cls-77,.cls-95{opacity:0.9;}.cls-73{fill:url(#名称未設定グラデーション_9);}.cls-74,.cls-75{opacity:0.2;}.cls-74{fill:url(#linear-gradient-5);}.cls-75{fill-opacity:0.42;fill:url(#linear-gradient-6);}.cls-76{fill:url(#linear-gradient-7);}.cls-77{fill:url(#名称未設定グラデーション_21);}.cls-78{fill:url(#linear-gradient-8);}.cls-79{fill:url(#linear-gradient-9);}.cls-80{fill:url(#linear-gradient-10);}.cls-81{fill:url(#linear-gradient-11);}.cls-82{fill:url(#linear-gradient-12);}.cls-83{fill:url(#linear-gradient-13);}.cls-84{fill:url(#名称未設定グラデーション_6);}.cls-85{fill:url(#linear-gradient-14);}.cls-86{fill:url(#名称未設定グラデーション_5);}.cls-88{fill:#666;}.cls-90{fill:#ccc;}.cls-91{fill:url(#名称未設定グラデーション_20);}.cls-92{fill:url(#linear-gradient-15);}.cls-93{fill:url(#名称未設定グラデーション_18);}.cls-94{fill:#b3b3b3;}.cls-95{fill:url(#名称未設定グラデーション_17);}.cls-96{fill:url(#名称未設定グラデーション_13);}.cls-97{fill:#4d4d4d;}.cls-98{fill:url(#名称未設定グラデーション_15);}</style><linearGradient id="名称未設定グラデーション_19" x1="2596" y1="2585.75" x2="2596" y2="2167.32" gradientUnits="userSpaceOnUse"><stop offset="0.1"/><stop offset="0.9" stop-color="#666"/></linearGradient><linearGradient id="名称未設定グラデーション_25" x1="2576.4" y1="2585.97" x2="2576.4" y2="2167.32" gradientUnits="userSpaceOnUse"><stop offset="0.15" stop-color="#1a1a1a"/><stop offset="0.45" stop-color="#666"/><stop offset="0.75" stop-color="#b3b3b3"/><stop offset="1" stop-color="#666"/></linearGradient><linearGradient id="名称未設定グラデーション_25-2" x1="2576.79" y1="2585.78" x2="2576.79" y2="2167.32" xlink:href="#名称未設定グラデーション_25"/><linearGradient id="名称未設定グラデーション_25-3" x1="352.33" y1="2585.97" x2="352.33" y2="2167.32" xlink:href="#名称未設定グラデーション_25"/><linearGradient id="名称未設定グラデーション_19-2" x1="352.33" y1="2585.92" x2="352.33" y2="2174.63" xlink:href="#名称未設定グラデーション_19"/><linearGradient id="名称未設定グラデーション_2" x1="493.62" y1="2585.92" x2="493.62" y2="2261.38" gradientUnits="userSpaceOnUse"><stop offset="0.1" stop-color="#1a1a1a"/><stop offset="0.5" stop-color="#4d4d4d"/><stop offset="0.9" stop-color="#1a1a1a"/></linearGradient><linearGradient id="名称未設定グラデーション_14" x1="351.4" y1="2585.94" x2="351.4" y2="2261.71" gradientUnits="userSpaceOnUse"><stop offset="0.1"/><stop offset="0.5" stop-color="#666"/><stop offset="0.9" stop-color="#999"/></linearGradient><linearGradient id="名称未設定グラデーション_16" x1="303.6" y1="2585.94" x2="303.6" y2="2261.91" gradientUnits="userSpaceOnUse"><stop offset="0.1" stop-color="#1a1a1a"/><stop offset="0.5" stop-color="#4d4d4d"/><stop offset="0.9" stop-color="#999"/></linearGradient><linearGradient id="名称未設定グラデーション_4" x1="68.14" y1="2585.97" x2="68.14" y2="2262.48" gradientUnits="userSpaceOnUse"><stop offset="0.1"/><stop offset="0.5" stop-color="#666"/><stop offset="0.9"/></linearGradient><linearGradient id="名称未設定グラデーション_220" x1="2576.79" y1="2585.78" x2="2576.79" y2="2315.77" gradientUnits="userSpaceOnUse"><stop offset="0.1"/><stop offset="0.9" stop-color="#8c8c8c"/></linearGradient><linearGradient id="名称未設定グラデーション_71" x1="2547.85" y1="2339.27" x2="2547.85" y2="2244.17" gradientUnits="userSpaceOnUse"><stop offset="0.1" stop-color="#262626"/><stop offset="0.9" stop-color="#1a1a1a"/></linearGradient><linearGradient id="名称未設定グラデーション_218" x1="2720.84" y1="2508.81" x2="2720.84" y2="2389.34" gradientUnits="userSpaceOnUse"><stop offset="0.1" stop-color="#4d4d4d"/><stop offset="0.9"/></linearGradient><linearGradient id="名称未設定グラデーション_7" x1="2576.39" y1="2508.98" x2="2576.39" y2="2389.34" gradientUnits="userSpaceOnUse"><stop offset="0.1" stop-color="#d9d9d9"/><stop offset="0.18" stop-color="#a6a6a6"/><stop offset="0.27" stop-color="#6f6f6f"/><stop offset="0.35" stop-color="#474747"/><stop offset="0.41" stop-color="#2f2f2f"/><stop offset="0.45" stop-color="#262626"/><stop offset="0.9"/></linearGradient><linearGradient id="名称未設定グラデーション_135" x1="1390.82" y1="2585.85" x2="1390.82" y2="2584.25" gradientUnits="userSpaceOnUse"><stop offset="0.23" stop-color="#999"/><stop offset="0.77" stop-color="#c5c5c5"/><stop offset="1" stop-color="#d9d9d9"/></linearGradient><linearGradient id="名称未設定グラデーション_25-4" x1="1924.97" y1="5866.09" x2="1924.97" y2="-1478.71" xlink:href="#名称未設定グラデーション_25"/><linearGradient id="名称未設定グラデーション_25-5" x1="1806.17" y1="2585.83" x2="1806.17" y2="2161" xlink:href="#名称未設定グラデーション_25"/><linearGradient id="名称未設定グラデーション_25-6" x1="774.3" y1="2585.91" x2="774.3" y2="2164.67" xlink:href="#名称未設定グラデーション_25"/><linearGradient id="名称未設定グラデーション_25-7" x1="1212.65" y1="2585.88" x2="1212.65" y2="2163.04" xlink:href="#名称未設定グラデーション_25"/><linearGradient id="名称未設定グラデーション_25-8" x1="909.98" y1="2601.02" x2="909.98" y2="2163.31" xlink:href="#名称未設定グラデーション_25"/><linearGradient id="名称未設定グラデーション_25-9" x1="1139.05" y1="2584.97" x2="1139.05" y2="2163.66" xlink:href="#名称未設定グラデーション_25"/><linearGradient id="名称未設定グラデーション_19-3" x1="995.14" y1="2557.22" x2="995.14" y2="2172.78" xlink:href="#名称未設定グラデーション_19"/><linearGradient id="名称未設定グラデーション_19-4" x1="1014.71" y1="2585.9" x2="1014.71" y2="2319.38" xlink:href="#名称未設定グラデーション_19"/><linearGradient id="名称未設定グラデーション_25-10" x1="947.14" y1="2585.32" x2="947.14" y2="2163.78" xlink:href="#名称未設定グラデーション_25"/><linearGradient id="名称未設定グラデーション_71-2" x1="947.14" y1="2342.58" x2="947.14" y2="2248.67" xlink:href="#名称未設定グラデーション_71"/><linearGradient id="名称未設定グラデーション_25-11" x1="1119.91" y1="2585.88" x2="1119.91" y2="2163.37" xlink:href="#名称未設定グラデーション_25"/><linearGradient id="名称未設定グラデーション_218-2" x1="1119.91" y1="2509.94" x2="1119.91" y2="2392.01" xlink:href="#名称未設定グラデーション_218"/><linearGradient id="名称未設定グラデーション_25-12" x1="975.32" y1="2586.16" x2="975.32" y2="2163.04" xlink:href="#名称未設定グラデーション_25"/><linearGradient id="名称未設定グラデーション_7-2" x1="975.32" y1="2510.11" x2="975.32" y2="2392.01" xlink:href="#名称未設定グラデーション_7"/><linearGradient id="名称未設定グラデーション_25-13" x1="2048.63" y1="2585.99" x2="2048.63" y2="2160.12" xlink:href="#名称未設定グラデーション_25"/><linearGradient id="名称未設定グラデーション_83" x1="2048.63" y1="2500.16" x2="2048.63" y2="2255.17" gradientUnits="userSpaceOnUse"><stop offset="0.1" stop-color="#d9d9d9"/><stop offset="0.18" stop-color="#a6a6a6"/><stop offset="0.27" stop-color="#6f6f6f"/><stop offset="0.35" stop-color="#474747"/><stop offset="0.41" stop-color="#2f2f2f"/><stop offset="0.45" stop-color="#262626"/><stop offset="0.9" stop-color="#1a1a1a"/></linearGradient><linearGradient id="名称未設定グラデーション_25-14" x1="1898.33" y1="2585.83" x2="1898.33" y2="2160.75" xlink:href="#名称未設定グラデーション_25"/><linearGradient id="名称未設定グラデーション_218-3" x1="1898.33" y1="2500.16" x2="1898.33" y2="2255.62" xlink:href="#名称未設定グラデーション_218"/><linearGradient id="名称未設定グラデーション_25-15" x1="1755.58" y1="2978.66" x2="1755.58" y2="1409.06" xlink:href="#名称未設定グラデーション_25"/><linearGradient id="名称未設定グラデーション_25-16" x1="1456.68" y1="2604.27" x2="1456.68" y2="2161.24" xlink:href="#名称未設定グラデーション_25"/><linearGradient id="名称未設定グラデーション_25-17" x1="1294.43" y1="2585.87" x2="1294.43" y2="2162.86" xlink:href="#名称未設定グラデーション_25"/><linearGradient id="名称未設定グラデーション_25-18" x1="1634.71" y1="3288.35" x2="1634.71" y2="2421.95" xlink:href="#名称未設定グラデーション_25"/><linearGradient id="名称未設定グラデーション_25-19" x1="1471.66" y1="2585.85" x2="1471.66" y2="2161.89" xlink:href="#名称未設定グラデーション_25"/><linearGradient id="名称未設定グラデーション_135-2" x1="1471.66" y1="2585.85" x2="1471.66" y2="2477.07" xlink:href="#名称未設定グラデーション_135"/><linearGradient id="名称未設定グラデーション_25-20" x1="1641.49" y1="2586.37" x2="1641.49" y2="2159.76" xlink:href="#名称未設定グラデーション_25"/><linearGradient id="名称未設定グラデーション_135-3" x1="1641.49" y1="2586.36" x2="1641.49" y2="2476.91" xlink:href="#名称未設定グラデーション_135"/><linearGradient id="名称未設定グラデーション_25-21" x1="1563.23" y1="2585.85" x2="1563.23" y2="2161.17" xlink:href="#名称未設定グラデーション_25"/><linearGradient id="名称未設定グラデーション_210" x1="1563.23" y1="2585.85" x2="1563.23" y2="2476.91" xlink:href="#名称未設定グラデーション_19"/><linearGradient id="名称未設定グラデーション_25-22" x1="1461.16" y1="2611.41" x2="1461.16" y2="2162.19" xlink:href="#名称未設定グラデーション_25"/><linearGradient id="名称未設定グラデーション_23" x1="1461.16" y1="2580.96" x2="1461.16" y2="2171.92" gradientUnits="userSpaceOnUse"><stop offset="0.23" stop-color="#b3b3b3"/><stop offset="0.9" stop-color="#dfdfdf"/><stop offset="1" stop-color="#e6e6e6"/></linearGradient><linearGradient id="名称未設定グラデーション_24" x1="1556.46" y1="2585.86" x2="1556.46" y2="2175.16" gradientUnits="userSpaceOnUse"><stop offset="0.1"/><stop offset="0.5" stop-color="#666"/><stop offset="0.9" stop-color="#1a1a1a"/></linearGradient><linearGradient id="名称未設定グラデーション_19-5" x1="2010.84" y1="2585.83" x2="2010.84" y2="2169.33" xlink:href="#名称未設定グラデーション_19"/><linearGradient id="名称未設定グラデーション_38" x1="2048.84" y1="2557.77" x2="2048.84" y2="2188.83" gradientUnits="userSpaceOnUse"><stop offset="0" stop-color="#b5b5b5"/><stop offset="0.11" stop-color="#a2a2a2"/><stop offset="0.2" stop-color="#999"/><stop offset="0.31" stop-color="#909090"/><stop offset="0.39" stop-color="#878787"/><stop offset="0.4" stop-color="#b3b3b3"/><stop offset="0.53" stop-color="#cfcfcf"/><stop offset="0.7" stop-color="#f2f2f2"/><stop offset="0.82" stop-color="#e9e9e9"/><stop offset="1" stop-color="#d4d4d4"/></linearGradient><linearGradient id="名称未設定グラデーション_38-2" x1="975.52" y1="2558.05" x2="975.52" y2="2192.11" xlink:href="#名称未設定グラデーション_38"/><linearGradient id="名称未設定グラデーション_38-3" x1="1424.18" y1="2562.08" x2="1424.18" y2="2190.45" xlink:href="#名称未設定グラデーション_38"/><linearGradient id="名称未設定グラデーション_38-4" x1="1593.9" y1="2557.86" x2="1593.9" y2="2189.65" xlink:href="#名称未設定グラデーション_38"/><linearGradient id="名称未設定グラデーション_38-5" x1="352.18" y1="2558.31" x2="352.18" y2="2195.54" xlink:href="#名称未設定グラデーション_38"/><linearGradient id="名称未設定グラデーション_38-6" x1="2576.65" y1="2558.32" x2="2576.65" y2="2195.55" xlink:href="#名称未設定グラデーション_38"/><linearGradient id="名称未設定グラデーション_28" x1="1509.2" y1="2558.05" x2="1509.2" y2="2189.71" xlink:href="#名称未設定グラデーション_38"/><linearGradient id="名称未設定グラデーション_19-6" x1="2595.92" y1="2585.97" x2="2595.92" y2="2166.97" xlink:href="#名称未設定グラデーション_19"/><linearGradient id="名称未設定グラデーション_220-2" x1="1014.71" y1="2585.97" x2="1014.71" y2="2319.38" xlink:href="#名称未設定グラデーション_220"/><linearGradient id="名称未設定グラデーション_22" x1="533.19" y1="2151.87" x2="712.56" y2="2331.24" gradientUnits="userSpaceOnUse"><stop offset="0.1" stop-color="#fff" stop-opacity="0"/><stop offset="0.2" stop-color="#fff" stop-opacity="0.32"/><stop offset="0.4" stop-color="#fff"/><stop offset="0.6" stop-color="#fff"/><stop offset="0.9" stop-color="#fff" stop-opacity="0"/></linearGradient><linearGradient id="名称未設定グラデーション_22-2" x1="2676.11" y1="2145.42" x2="2835.46" y2="2304.77" xlink:href="#名称未設定グラデーション_22"/><linearGradient id="名称未設定グラデーション_22-3" x1="2323.38" y1="2446.37" x2="2468.08" y2="2301.67" xlink:href="#名称未設定グラデーション_22"/><linearGradient id="名称未設定グラデーション_22-4" x1="1075.97" y1="2150.71" x2="1234.29" y2="2309.03" xlink:href="#名称未設定グラデーション_22"/><linearGradient id="名称未設定グラデーション_22-5" x1="723.01" y1="2449.04" x2="867.04" y2="2305.01" xlink:href="#名称未設定グラデーション_22"/><linearGradient id="名称未設定グラデーション_22-6" x1="2095.94" y1="2137.82" x2="2319.23" y2="2361.12" xlink:href="#名称未設定グラデーション_22"/><linearGradient id="linear-gradient" x1="1186.92" y1="50.24" x2="1664.09" y2="1831.05" gradientUnits="userSpaceOnUse"><stop offset="0.21"/><stop offset="0.36" stop-color="#0b0b0b"/><stop offset="0.59" stop-color="#262626"/><stop offset="0.85" stop-color="#b2b2b2"/><stop offset="1" stop-color="#fff"/></linearGradient><linearGradient id="名称未設定グラデーション_11" x1="1186.88" y1="50.25" x2="1665.74" y2="1837.39" gradientUnits="userSpaceOnUse"><stop offset="0"/><stop offset="0.56" stop-color="#1a1a1a"/><stop offset="0.61" stop-color="#202020"/><stop offset="0.71" stop-color="#262626"/><stop offset="0.84" stop-color="#fff"/><stop offset="0.89" stop-color="#fff"/><stop offset="1" stop-color="gray"/></linearGradient><linearGradient id="名称未設定グラデーション_10" x1="11753.22" y1="0.03" x2="12216.83" y2="1730.23" gradientTransform="matrix(-1, 0, 0, 1, 12927.57, 0)" gradientUnits="userSpaceOnUse"><stop offset="0" stop-opacity="0"/><stop offset="0.61" stop-color="#1a1a1a"/><stop offset="0.67" stop-color="#1d1d1d"/><stop offset="0.71" stop-color="#262626"/><stop offset="0.87" stop-color="#eee"/><stop offset="1" stop-color="#dcdcdc" stop-opacity="0"/></linearGradient><linearGradient id="名称未設定グラデーション_39" x1="1765.9" y1="1903.67" x2="1070.35" y2="-7.33" gradientUnits="userSpaceOnUse"><stop offset="0.04"/><stop offset="0.19"/><stop offset="0.29" stop-color="#343434"/><stop offset="0.45" stop-color="#8a8a8a"/><stop offset="0.58" stop-color="#c9c9c9"/><stop offset="0.68" stop-color="#f0f0f0"/><stop offset="0.73" stop-color="#fff"/><stop offset="1" stop-color="#4d4d4d"/></linearGradient><linearGradient id="linear-gradient-2" x1="575.78" y1="864.03" x2="834.7" y2="-38.96" gradientUnits="userSpaceOnUse"><stop offset="0" stop-color="#fff" stop-opacity="0"/><stop offset="0.11" stop-color="#fff" stop-opacity="0.25"/><stop offset="0.28" stop-color="#fff" stop-opacity="0.65"/><stop offset="0.4" stop-color="#fff" stop-opacity="0.9"/><stop offset="0.46" stop-color="#fff"/><stop offset="0.81" stop-color="#bcbcbc" stop-opacity="0.34"/><stop offset="1" stop-color="#9a9a9a" stop-opacity="0"/></linearGradient><linearGradient id="linear-gradient-3" x1="709.26" y1="236.85" x2="2134.37" y2="236.85" gradientUnits="userSpaceOnUse"><stop offset="0"/><stop offset="0.03" stop-color="#101010" stop-opacity="0.94"/><stop offset="0.13" stop-color="#3f3f3f" stop-opacity="0.74"/><stop offset="0.24" stop-color="#616161" stop-opacity="0.6"/><stop offset="0.36" stop-color="#767676" stop-opacity="0.52"/><stop offset="0.5" stop-color="#7c7c7c" stop-opacity="0.5"/><stop offset="1"/></linearGradient><linearGradient id="linear-gradient-4" x1="10559.12" y1="1387.88" x2="10491.13" y2="1574.67" gradientTransform="matrix(-1, 0, 0, 1, 12890.24, 0)" gradientUnits="userSpaceOnUse"><stop offset="0.24" stop-opacity="0"/><stop offset="0.44"/><stop offset="0.69" stop-opacity="0.74"/><stop offset="1" stop-opacity="0"/></linearGradient><linearGradient id="名称未設定グラデーション_9" x1="945.07" y1="-60.15" x2="367.09" y2="982.56" gradientTransform="translate(-11.17)" gradientUnits="userSpaceOnUse"><stop offset="0" stop-color="#fff" stop-opacity="0"/><stop offset="0.05" stop-color="#fff" stop-opacity="0.11"/><stop offset="0.16" stop-color="#fff" stop-opacity="0.39"/><stop offset="0.31" stop-color="#fff" stop-opacity="0.84"/><stop offset="0.37" stop-color="#fff"/><stop offset="1" stop-color="gray" stop-opacity="0"/></linearGradient><linearGradient id="linear-gradient-5" x1="2032.19" y1="254.32" x2="2373.45" y2="254.32" gradientUnits="userSpaceOnUse"><stop offset="0"/><stop offset="0.09" stop-opacity="0.8"/><stop offset="1" stop-opacity="0"/></linearGradient><linearGradient id="linear-gradient-6" x1="12165.12" y1="163.82" x2="12165.12" y2="384.68" gradientTransform="matrix(-1, 0, 0, 1, 12775.24, 0)" gradientUnits="userSpaceOnUse"><stop offset="0"/><stop offset="1" stop-opacity="0"/></linearGradient><linearGradient id="linear-gradient-7" x1="1014.74" y1="1470.43" x2="918.44" y2="1735.01" gradientTransform="translate(-299.03)" gradientUnits="userSpaceOnUse"><stop offset="0.05" stop-opacity="0"/><stop offset="0.26"/><stop offset="0.53" stop-opacity="0.85"/><stop offset="0.61" stop-color="#050505" stop-opacity="0.84"/><stop offset="0.69" stop-color="#161616" stop-opacity="0.79"/><stop offset="0.74" stop-color="#262626" stop-opacity="0.74"/><stop offset="0.76" stop-color="#1c1c1c" stop-opacity="0.54"/><stop offset="0.79" stop-color="#0c0c0c" stop-opacity="0.23"/><stop offset="0.85" stop-color="#030303" stop-opacity="0.05"/><stop offset="1" stop-opacity="0"/></linearGradient><linearGradient id="名称未設定グラデーション_21" x1="10503.79" y1="798.69" x2="10742.74" y2="-34.61" gradientTransform="matrix(-1, 0, 0, 1, 12743.24, 0)" gradientUnits="userSpaceOnUse"><stop offset="0" stop-color="#fff" stop-opacity="0"/><stop offset="0.17" stop-color="#c8c8c8" stop-opacity="0.32"/><stop offset="0.46" stop-color="#565656"/><stop offset="0.47" stop-color="#404040"/><stop offset="0.6" stop-color="#464646" stop-opacity="0.93"/><stop offset="0.74" stop-color="#595959" stop-opacity="0.72"/><stop offset="0.88" stop-color="#777" stop-opacity="0.37"/><stop offset="0.97" stop-color="#939393" stop-opacity="0.05"/><stop offset="1" stop-color="#9a9a9a" stop-opacity="0"/></linearGradient><linearGradient id="linear-gradient-8" x1="2430.33" y1="387.37" x2="2641.02" y2="387.37" gradientTransform="translate(-241.06)" gradientUnits="userSpaceOnUse"><stop offset="0"/><stop offset="0.31" stop-color="#060606"/><stop offset="0.71" stop-color="#151515"/><stop offset="1" stop-color="#262626"/></linearGradient><linearGradient id="linear-gradient-9" x1="12415.9" y1="390.12" x2="12626.54" y2="390.12" gradientTransform="matrix(-1, 0, 0, 1, 13065.99, 0)" xlink:href="#linear-gradient-8"/><linearGradient id="linear-gradient-10" x1="413.49" y1="394.03" x2="631.92" y2="394.03" gradientTransform="translate(19.13)" gradientUnits="userSpaceOnUse"><stop offset="0" stop-color="#b2b2b2"/><stop offset="0.01" stop-color="#b0b0b0"/><stop offset="0.26" stop-color="#666"/><stop offset="0.44" stop-color="#383838"/><stop offset="0.53" stop-color="#262626"/></linearGradient><linearGradient id="linear-gradient-11" x1="7948.02" y1="393.44" x2="8167.37" y2="393.44" gradientTransform="matrix(-1, 0, 0, 1, 10350.86, 0)" xlink:href="#linear-gradient-10"/><linearGradient id="linear-gradient-12" x1="492.32" y1="1010.73" x2="2356.64" y2="1010.73" gradientUnits="userSpaceOnUse"><stop offset="0"/><stop offset="0.03" stop-color="#171717"/><stop offset="0.1" stop-color="#3c3c3c"/><stop offset="0.16" stop-color="#5b5b5b"/><stop offset="0.23" stop-color="#737373"/><stop offset="0.3" stop-color="#848484"/><stop offset="0.38" stop-color="#8e8e8e"/><stop offset="0.48" stop-color="#919191"/><stop offset="0.5" stop-color="#fff" stop-opacity="0.77"/><stop offset="0.5" stop-opacity="0.9"/><stop offset="0.52" stop-color="#090909" stop-opacity="0.92"/><stop offset="0.55" stop-color="#212121" stop-opacity="0.99"/><stop offset="0.55" stop-color="#262626"/><stop offset="0.55" stop-color="#272727"/><stop offset="0.56" stop-color="#323232"/><stop offset="0.57" stop-color="#393939"/><stop offset="0.59" stop-color="#3b3b3b"/><stop offset="1"/></linearGradient><linearGradient id="linear-gradient-13" x1="11953.22" y1="962.58" x2="11148.39" y2="806.14" gradientTransform="matrix(-1, 0, 0, 1, 12467.95, 0)" gradientUnits="userSpaceOnUse"><stop offset="0"/><stop offset="0.55" stop-color="#181818"/><stop offset="1" stop-color="#262626"/></linearGradient><linearGradient id="名称未設定グラデーション_6" x1="1417.42" y1="782.69" x2="2409.42" y2="782.69" gradientUnits="userSpaceOnUse"><stop offset="0"/><stop offset="0.03" stop-color="#282828"/><stop offset="0.07" stop-color="#4f4f4f"/><stop offset="0.11" stop-color="#717171"/><stop offset="0.15" stop-color="#8d8d8d"/><stop offset="0.2" stop-color="#a4a4a4"/><stop offset="0.25" stop-color="#b6b6b6"/><stop offset="0.31" stop-color="#c3c3c3"/><stop offset="0.4" stop-color="#cacaca"/><stop offset="0.61" stop-color="#ccc"/><stop offset="0.82" stop-color="#fff"/></linearGradient><linearGradient id="linear-gradient-14" x1="1836.1" y1="728.66" x2="1982.47" y2="1207.42" gradientUnits="userSpaceOnUse"><stop offset="0"/><stop offset="0.03"/><stop offset="0.34"/><stop offset="0.42" stop-color="#090909"/><stop offset="0.57" stop-color="#171717"/><stop offset="0.81"/></linearGradient><linearGradient id="名称未設定グラデーション_5" x1="11045.72" y1="781.98" x2="12042.95" y2="781.98" gradientTransform="matrix(-1, 0, 0, 1, 12467.95, 0)" gradientUnits="userSpaceOnUse"><stop offset="0"/><stop offset="0.04" stop-color="#1f1f1f"/><stop offset="0.08" stop-color="#3e3e3e"/><stop offset="0.13" stop-color="#545454"/><stop offset="0.17" stop-color="#616161"/><stop offset="0.21" stop-color="#666"/><stop offset="0.24" stop-color="#737373"/><stop offset="0.35" stop-color="#9e9e9e"/><stop offset="0.45" stop-color="#c1c1c1"/><stop offset="0.56" stop-color="#dcdcdc"/><stop offset="0.67" stop-color="#f0f0f0"/><stop offset="0.78" stop-color="#fbfbfb"/><stop offset="0.89" stop-color="#fff"/><stop offset="1" stop-color="#adadad"/></linearGradient><linearGradient id="名称未設定グラデーション_20" x1="881.06" y1="18.11" x2="1954.57" y2="1877.47" gradientUnits="userSpaceOnUse"><stop offset="0" stop-color="#f2f2f2"/><stop offset="0.97" stop-color="#262626"/></linearGradient><linearGradient id="linear-gradient-15" x1="758" y1="1666.35" x2="2102.17" y2="1666.35" gradientUnits="userSpaceOnUse"><stop offset="0"/><stop offset="0.24" stop-color="#262626"/><stop offset="0.5" stop-color="#565656"/><stop offset="1"/></linearGradient><linearGradient id="名称未設定グラデーション_18" x1="1417.32" y1="1844.87" x2="1417.32" y2="543.3" gradientUnits="userSpaceOnUse"><stop offset="0.12" stop-color="#333"/><stop offset="0.18" stop-color="#3c3c3c"/><stop offset="0.27" stop-color="#555"/><stop offset="0.39" stop-color="#7e7e7e"/><stop offset="0.53" stop-color="#b7b7b7"/><stop offset="0.67" stop-color="#f8f8f8"/><stop offset="0.73" stop-color="#fff"/></linearGradient><linearGradient id="名称未設定グラデーション_17" x1="459.18" y1="1425.6" x2="2451" y2="700.64" gradientUnits="userSpaceOnUse"><stop offset="0" stop-color="#4d4d4d"/><stop offset="0.21" stop-color="#999"/><stop offset="0.37" stop-color="#f2f2f2"/><stop offset="0.63" stop-color="#f0f0f0"/><stop offset="0.73" stop-color="#e9e9e9"/><stop offset="0.8" stop-color="#dedede"/><stop offset="0.85" stop-color="#cdcdcd"/><stop offset="0.9" stop-color="#b7b7b7"/><stop offset="0.94" stop-color="#9c9c9c"/><stop offset="0.97" stop-color="#7d7d7d"/><stop offset="0.98" stop-color="#797979"/><stop offset="1" stop-color="#505050"/><stop offset="1" stop-color="#4d4d4d"/></linearGradient><linearGradient id="名称未設定グラデーション_13" x1="1417.32" y1="1827.01" x2="1417.32" y2="558.42" gradientUnits="userSpaceOnUse"><stop offset="0.36" stop-color="#f2f2f2" stop-opacity="0"/><stop offset="0.43" stop-color="#e0e0e0" stop-opacity="0.15"/><stop offset="0.56" stop-color="#b0b0b0" stop-opacity="0.54"/><stop offset="0.7" stop-color="#797979"/><stop offset="0.79" stop-color="#515151"/><stop offset="0.87" stop-color="#333"/><stop offset="0.95" stop-color="#212121"/><stop offset="1" stop-color="#1a1a1a"/></linearGradient><linearGradient id="名称未設定グラデーション_15" x1="10171.65" y1="18.11" x2="11245.16" y2="1877.47" gradientTransform="matrix(-1, 0, 0, 1, 12125.24, 0)" gradientUnits="userSpaceOnUse"><stop offset="0" stop-color="#e6e6e6"/><stop offset="1" stop-color="#333"/></linearGradient></defs><title>Brand_Mark_Vertical_Primary_MDP</title><g id="script"><path d="M567.2,2595.18V2350.57c0-47.9-9.5-56.92-59.8-56.8l-87.46.22v301.19H282.88V2294.32l-146.58.36v300.5H0v-428l510.42-1.79c154.34-.54,194.35,37.07,194.35,182.9v246.9Z"/><path d="M2654.18,2157.91l-300,1.07.24,118.91,300-.77c41.37-.11,45.2.7,45.27,29.26l-217,.5c-74.84.18-163.88,25.36-163.65,144.33s89.4,144,164.25,144h351.37l-.68-279.68C2833.66,2186,2801,2157.39,2654.18,2157.91Zm45.93,318-217.08.21c-26.9,0-30.56-13.47-30.58-26.67s3.57-26.69,30.47-26.73l217.06-.31Z"/><path d="M1919,2288.29l131.57-.33c116.51-.29,127.51,15.54,127.51,89.41s-11,89.74-127.51,89.87l-131.57.13Zm-819.89,189.13-217.22.2c-26.92,0-30.55-13.29-30.55-26.32s3.63-26.35,30.55-26.39l217.22-.3ZM2064.42,2160l-351.23,1.23-479.72,334.17h0V2319c0-127.79-32.69-156.06-179.58-155.54l-300.26,1.06V2282l300.26-.76c41.4-.11,45.23.69,45.23,28.89l-217.2.5c-74.9.17-164.06,25-164.06,142.48s89.16,142.1,164.06,142.1h423.31l480.29-334v334h278.9c194.63,0,248-46.87,248-218S2259.05,2159.28,2064.42,2160ZM1657,2161.39l-383.19,1.35v127.13l199.52-.48Zm-295.81,433.78h383.74V2467.55l-200.41.19Z"/><path class="cls-1" d="M570.28,2592.1V2350.56c0-49.93-10.58-60-62.88-59.87l-90.53.22V2592.1H286V2291.24l-152.71.37v300.5H3.05V2170.23l507.37-1.76c151.89-.53,191.26,36.44,191.26,179.82v243.8Z"/><path class="cls-1" d="M2483.28,2592.05c-105.32,0-161-48.71-161.19-140.85s55.3-140.94,160.59-141.18l220.12-.51v-.62c-.08-34.06-4.17-35-48.36-34.91l-296.93.78-.23-112.66,296.9-1c145-.51,176.4,26.91,176.71,154.44l.67,276.55Zm-.37-172.51c-22.92,0-33.57,9.52-33.53,29.87s10.74,29.81,33.66,29.79l220.15-.2-.14-59.78Z"/><path class="cls-1" d="M2181.18,2377.37c0-75.26-12-92.83-130.59-92.53l-134.64.34V2470.5l134.64-.14C2169.13,2470.24,2181.18,2452.63,2181.18,2377.37ZM848.3,2451.3c0,20.09,10.68,29.43,33.61,29.41l220.3-.2v-59l-220.3.32C859,2421.85,848.3,2431.22,848.3,2451.3Zm1216.12,140.76H1788.58V2255.29l-484.3,336.78-422.36,0c-105.38,0-161-48.07-161-139s55.63-139.15,161-139.39l220.29-.5v-.61c0-33.63-4.1-34.59-48.32-34.47l-297.2.76V2167.62l297.2-1c145.12-.51,176.5,26.57,176.5,152.51v182.16l483.76-337,350.27-1.22c193.17-.68,244.94,44.49,244.94,214S2257.59,2592.05,2064.42,2592.06Zm-787.59-305.3V2165.84l370.19-1.3-174.68,121.75Zm465,183.91v121.39H1371l174.4-121.22Z"/><path class="cls-2" d="M2654.2,2167.32l-287.56,1,23,23.39,264.6-.87c120.93-.39,147.12,21.75,147.37,124.71l.58,246.62,23.17,23.57-.64-270.24C2824.43,2191.57,2795.93,2166.83,2654.2,2167.32Z"/><path class="cls-3" d="M2482.84,2385.06c-41.51.07-67.23,24.74-67.15,64.39s25.91,64.26,67.42,64.23l254-.16-.3-128.89Zm.21,100.41c-26.33,0-39.74-12.14-39.79-36s13.31-36.11,39.64-36.15l226.29-.34.17,72.34Z"/><path class="cls-4" d="M2824.73,2315.51c-.3-123.94-28.8-148.68-170.53-148.19l-290.79,1,.2,100.14,290.81-.78c48.58-.12,54.45,4.3,54.53,41.18l0,6.89-226.27.51c-102.61.24-154.67,45.73-154.5,134.92s52.43,134.58,155.06,134.58l342.11,0Zm-341.53,242c-87.32,0-127.33-33.39-127.47-106.4s39.72-106.49,127-106.67l254-.52-.08-35.16c-.15-64.59-34.21-69.48-82.28-69.34l-263.27.76-.09-43.81,263.26-.86c118.65-.39,142.5,19.65,142.74,120l.57,241.89Z"/><path class="cls-5" d="M510.42,2174.64,9.16,2176.35V2586h118V2285.48l165-.42v300.88H410.72V2284.76l96.68-.24c55.6-.14,69.05,12.72,69.05,66v235.37h119V2348.3C695.5,2208.3,659,2174.13,510.42,2174.64Zm93.78,383.5V2350.5c0-68.53-26.25-93.94-96.8-93.74l-124.35.34v301.1l-63.34,0V2257.27l-220.13.61v300.41l-62.92,0v-354.4l473.76-1.51c126.3-.4,157.28,28.32,157.28,146v209.76Z"/><path class="cls-6" d="M510.42,2174.64,9.16,2176.35l22.92,23,478.34-1.55c128.59-.41,161.92,30.55,161.92,150.58v214.4l-72.76,0-23.13,23.15h119V2348.3C695.5,2208.3,659,2174.13,510.42,2174.64Z"/><path class="cls-7" d="M507.4,2261.39l-119.74.32,23.06,23.05,96.68-.24c55.6-.14,69.05,12.72,69.05,66v235.37l23.13-23.15V2350.51C599.58,2284.52,575.44,2261.2,507.4,2261.39Z"/><polygon class="cls-8" points="387.66 2261.71 387.66 2562.83 315.11 2562.84 292.09 2585.94 410.72 2585.94 410.72 2284.76 387.66 2261.71"/><polygon class="cls-9" points="292.09 2285.06 292.09 2585.94 315.11 2562.84 315.11 2261.91 292.09 2285.06"/><polygon class="cls-10" points="104.17 2262.48 127.12 2285.48 292.09 2285.06 315.11 2261.91 104.17 2262.48"/><polygon class="cls-11" points="104.17 2262.48 104.17 2562.9 32.08 2562.92 9.16 2585.97 127.12 2585.96 127.12 2285.48 104.17 2262.48"/><path class="cls-12" d="M2802.2,2562.18l-319,.08c-90,0-131.92-35.23-132.07-111.09s41.59-111.2,131.61-111.38l249.35-.52-23.13-23.5-226.27.51c-102.61.24-154.67,45.73-154.5,134.92s52.43,134.58,155.06,134.58l342.11,0Z"/><path class="cls-13" d="M2654.37,2244.17l-267.86.77-22.9,23.54,290.81-.78c48.58-.12,54.45,4.3,54.53,41.18l0,6.89,23.13,23.5-.07-30.45C2731.89,2248.46,2701.18,2244,2654.37,2244.17Z"/><polygon class="cls-14" points="2709.19 2412.93 2709.36 2485.27 2732.49 2508.81 2732.21 2389.34 2709.19 2412.93"/><path class="cls-15" d="M2483.05,2485.47c-26.33,0-39.74-12.14-39.79-36s13.31-36.11,39.64-36.15l226.29-.34,23-23.59-249.36.42c-39.26.07-62.64,22.38-62.56,59.68s23.55,59.57,62.81,59.54l249.39-.17-23.13-23.54Z"/><path class="cls-16" d="M2482.9,2413.27c-26.33,0-39.69,12.23-39.64,36.15s13.46,36.08,39.79,36l226.31-.2-.17-72.34Z"/><path class="cls-16" d="M851.36,2451.3c0,13,3.63,26.35,30.55,26.32l217.22-.2v-52.81l-217.22.3C855,2425,851.36,2438.27,851.36,2451.3Z"/><path class="cls-16" d="M2178.1,2377.37c0-73.87-11-89.7-127.51-89.41l-131.57.33v179.08l131.57-.13C2167.1,2467.11,2178.1,2451.25,2178.1,2377.37Z"/><polygon class="cls-1" points="1390.82 2585.85 1390.82 2585.85 1390.82 2585.85 1390.82 2585.85"/><polygon class="cls-17" points="1390.82 2585.85 1390.82 2585.85 1390.82 2585.85 1390.82 2585.85"/><polygon class="cls-18" points="1545.35 2478.46 1545.35 2478.46 1547.34 2477.07 1545.35 2478.46"/><polygon class="cls-1" points="2064.42 2192.77 1785.52 2193.69 1785.52 2193.69 2064.42 2192.77"/><polygon class="cls-19" points="2064.42 2192.77 1785.52 2193.69 1785.52 2193.69 2064.42 2192.77"/><polygon class="cls-1" points="1817.65 2198.99 1794.7 2243.43 1794.7 2585.83 1817.65 2562.45 1817.65 2198.99"/><polygon class="cls-20" points="1817.65 2198.99 1794.7 2243.43 1794.7 2585.83 1817.65 2562.45 1817.65 2198.99"/><polygon class="cls-1" points="785.78 2200.17 762.82 2177.06 762.82 2272.68 785.78 2249.43 785.78 2200.17"/><polygon class="cls-21" points="785.78 2200.17 762.82 2177.06 762.82 2272.68 785.78 2249.43 785.78 2200.17"/><polygon class="cls-1" points="1201.09 2557.22 1224.22 2513.04 1224.22 2319.11 1201.09 2319.16 1201.09 2557.22"/><polygon class="cls-22" points="1201.09 2557.22 1224.22 2513.04 1224.22 2319.11 1201.09 2319.16 1201.09 2557.22"/><polygon class="cls-1" points="1053.89 2196.02 1053.89 2172.78 766.07 2173.76 789.05 2196.87 1053.89 2196.02"/><polygon class="cls-23" points="1053.89 2196.02 1053.89 2172.78 766.07 2173.76 789.05 2196.87 1053.89 2196.02"/><path class="cls-1" d="M1201.09,2319.16l23.13,0c0-122.38-28.47-146.81-170.33-146.32V2196C1174.92,2195.63,1201.09,2217.5,1201.09,2319.16Z"/><path class="cls-24" d="M1201.09,2319.16l23.13,0c0-122.38-28.47-146.81-170.33-146.32V2196C1174.92,2195.63,1201.09,2217.5,1201.09,2319.16Z"/><path class="cls-25" d="M1224.22,2319.11c0-122.38-28.47-146.81-170.33-146.32l-287.82,1,23,23.11,264.84-.85c121-.39,147.2,21.48,147.2,123.14v238.06l23.13-44.18Z"/><path class="cls-26" d="M1295.27,2562.58l-413.35.12C791.83,2562.72,750,2527.92,750,2453s41.85-109.77,131.94-110l249.54-.5-23.1-23.2-226.45.5C779.22,2320.11,727,2365,727,2453.07s52.19,132.84,154.89,132.83l420.47,0Z"/><path class="cls-1" d="M1131.46,2312.51c0-59.6-30.73-64-77.57-63.84l-268.11.76-23,23.25,291.07-.77c48.61-.13,54.47,4.25,54.47,40.65v6.82l23.1,23.2Z"/><path class="cls-27" d="M1131.46,2312.51c0-59.6-30.73-64-77.57-63.84l-268.11.76-23,23.25,291.07-.77c48.61-.13,54.47,4.25,54.47,40.65v6.82l23.1,23.2Z"/><path class="cls-28" d="M1131.46,2312.51c0-59.6-30.73-64-77.57-63.84l-268.11.76-23,23.25,291.07-.77c48.61-.13,54.47,4.25,54.47,40.65v6.82l23.1,23.2Z"/><polygon class="cls-1" points="1108.37 2486.71 1131.46 2509.94 1131.46 2392.01 1108.37 2415.3 1108.37 2486.71"/><polygon class="cls-29" points="1108.37 2486.71 1131.46 2509.94 1131.46 2392.01 1108.37 2415.3 1108.37 2486.71"/><polygon class="cls-30" points="1108.37 2486.71 1131.46 2509.94 1131.46 2392.01 1108.37 2415.3 1108.37 2486.71"/><path class="cls-1" d="M819.18,2451.34c0,36.82,23.44,58.79,62.73,58.77l249.55-.17-23.1-23.23-226.45.19c-26.34,0-39.74-12-39.74-35.59s13.4-35.64,39.74-35.68l226.45-.33,23.1-23.29-249.55.41C842.62,2392.49,819.18,2414.51,819.18,2451.34Z"/><path class="cls-31" d="M819.18,2451.34c0,36.82,23.44,58.79,62.73,58.77l249.55-.17-23.1-23.23-226.45.19c-26.34,0-39.74-12-39.74-35.59s13.4-35.64,39.74-35.68l226.45-.33,23.1-23.29-249.55.41C842.62,2392.49,819.18,2414.51,819.18,2451.34Z"/><path class="cls-32" d="M819.18,2451.34c0,36.82,23.44,58.79,62.73,58.77l249.55-.17-23.1-23.23-226.45.19c-26.34,0-39.74-12-39.74-35.59s13.4-35.64,39.74-35.68l226.45-.33,23.1-23.29-249.55.41C842.62,2392.49,819.18,2414.51,819.18,2451.34Z"/><path class="cls-1" d="M2050.59,2255.17l-163.75.45,23,23.34,140.77-.36c115.8-.3,136.75,14.81,136.75,98.76s-21,99.13-136.75,99.25l-140.77.13-23,23.42,163.75-.13c119.89-.09,159.84-17.84,159.84-122.71S2170.48,2254.84,2050.59,2255.17Z"/><path class="cls-33" d="M2050.59,2255.17l-163.75.45,23,23.34,140.77-.36c115.8-.3,136.75,14.81,136.75,98.76s-21,99.13-136.75,99.25l-140.77.13-23,23.42,163.75-.13c119.89-.09,159.84-17.84,159.84-122.71S2170.48,2254.84,2050.59,2255.17Z"/><path class="cls-34" d="M2050.59,2255.17l-163.75.45,23,23.34,140.77-.36c115.8-.3,136.75,14.81,136.75,98.76s-21,99.13-136.75,99.25l-140.77.13-23,23.42,163.75-.13c119.89-.09,159.84-17.84,159.84-122.71S2170.48,2254.84,2050.59,2255.17Z"/><polygon class="cls-1" points="1909.82 2278.96 1886.84 2255.63 1886.84 2500.16 1909.82 2476.74 1909.82 2278.96"/><polygon class="cls-35" points="1909.82 2278.96 1886.84 2255.63 1886.84 2500.16 1909.82 2476.74 1909.82 2278.96"/><polygon class="cls-36" points="1909.82 2278.96 1886.84 2255.63 1886.84 2500.16 1909.82 2476.74 1909.82 2278.96"/><polygon class="cls-1" points="1785.52 2193.66 1785.52 2193.66 1725.65 2193.86 1725.65 2193.86 1785.52 2193.66"/><polygon class="cls-37" points="1785.52 2193.66 1785.52 2193.66 1725.65 2193.86 1725.65 2193.86 1785.52 2193.66"/><polygon class="cls-1" points="1552.73 2194.42 1627.16 2170.84 1286.19 2172.01 1309.15 2195.22 1552.73 2194.42"/><polygon class="cls-38" points="1552.73 2194.42 1627.16 2170.84 1286.19 2172.01 1309.15 2195.22 1552.73 2194.42"/><polygon class="cls-1" points="1305.91 2198.52 1282.95 2175.31 1282.95 2280.54 1282.95 2280.54 1305.91 2257.2 1305.91 2198.52"/><polygon class="cls-39" points="1305.91 2198.52 1282.95 2175.31 1282.95 2280.54 1282.95 2280.54 1305.91 2257.2 1305.91 2198.52"/><polygon class="cls-1" points="1712.52 2500.29 1556.9 2500.39 1556.9 2500.39 1712.52 2500.29"/><polygon class="cls-40" points="1712.52 2500.29 1556.9 2500.39 1556.9 2500.39 1712.52 2500.29"/><polygon class="cls-10" points="1627.16 2170.84 1552.73 2194.42 1463.3 2256.78 1305.91 2257.2 1282.95 2280.54 1470.43 2280.07 1627.16 2170.84"/><polygon class="cls-1" points="1465.05 2562.53 1552.49 2501.78 1545.35 2478.46 1390.82 2585.85 1390.82 2585.85 1465.05 2562.53"/><polygon class="cls-41" points="1465.05 2562.53 1552.49 2501.78 1545.35 2478.46 1390.82 2585.85 1390.82 2585.85 1465.05 2562.53"/><polygon class="cls-42" points="1465.05 2562.53 1552.49 2501.78 1545.35 2478.46 1390.82 2585.85 1390.82 2585.85 1465.05 2562.53"/><polygon class="cls-1" points="1549.76 2477.07 1556.9 2500.39 1712.52 2500.29 1735.64 2476.91 1547.34 2477.07 1549.76 2477.07"/><polygon class="cls-43" points="1549.76 2477.07 1556.9 2500.39 1712.52 2500.29 1735.64 2476.91 1547.34 2477.07 1549.76 2477.07"/><polygon class="cls-44" points="1549.76 2477.07 1556.9 2500.39 1712.52 2500.29 1735.64 2476.91 1547.34 2477.07 1549.76 2477.07"/><polygon class="cls-1" points="1712.52 2562.47 1465.05 2562.53 1390.82 2585.85 1735.64 2585.82 1735.64 2476.91 1712.52 2500.29 1712.52 2562.47"/><polygon class="cls-45" points="1712.52 2562.47 1465.05 2562.53 1390.82 2585.85 1735.64 2585.82 1735.64 2476.91 1712.52 2500.29 1712.52 2562.47"/><polygon class="cls-46" points="1712.52 2562.47 1465.05 2562.53 1390.82 2585.85 1735.64 2585.82 1735.64 2476.91 1712.52 2500.29 1712.52 2562.47"/><polygon class="cls-47" points="1721.23 2195.26 1714.07 2171.92 1224.22 2513.04 1201.09 2557.22 1721.23 2195.26"/><polygon class="cls-48" points="1721.23 2195.26 1714.07 2171.92 1224.22 2513.04 1201.09 2557.22 1721.23 2195.26"/><polygon class="cls-49" points="1295.27 2562.58 1302.38 2585.86 1794.7 2243.43 1817.65 2198.99 1295.27 2562.58"/><path class="cls-50" d="M2064.42,2169.34l-345.94,1.19,7.17,23.33,338.77-1.09c177.29-.58,215.64,32.17,215.64,184.43s-38.35,185.14-215.64,185.19l-246.77.06-23,23.38,269.72,0c189.82,0,238.77-42.73,238.77-208.66S2254.24,2168.68,2064.42,2169.34Z"/><g id="_white" data-name=" white"><path class="cls-18" d="M1305.91,2257.2l157.39-.42,89.43-62.36-243.58.8-23-23.21H1283v3.29l23,23.21Z"/><path class="cls-18" d="M1556.9,2500.4h0l-7.15-23.33h-2.41l-2,1.39,7.15,23.32-87.45,60.75,247.47-.06v-62.18Z"/><path class="cls-18" d="M510.42,2197.77l-475.1,1.54-22.92-23H9.16v3.26l22.92,23v360.35l72.09,0V2262.48l210.94-.57v300.93h72.55V2261.71l119.74-.32c68-.19,92.18,23.13,92.18,89.12v212.26l72.76,0v-214.4C672.34,2228.32,639,2197.36,510.42,2197.77Z"/><path class="cls-18" d="M2654.25,2190.85l-264.6.87-23-23.39h-3.25v3.32l23,23.39.1,49.89,267.86-.77c46.81-.13,77.52,4.29,77.66,64.65l.07,30.45-249.35.52c-90,.18-131.76,35.53-131.61,111.38s42,111.12,132.07,111.09l319-.08-.58-246.62C2801.37,2212.6,2775.18,2190.46,2654.25,2190.85Zm78.24,318-249.39.17c-39.26,0-62.74-22.23-62.81-59.54s23.3-59.61,62.56-59.68l249.36-.42Z"/><path class="cls-18" d="M2064.42,2192.77l-338.77,1.09h0l-7.17-23.34h-2.42l-2,1.39,7.16,23.34h0l-520.14,362V2319.16c0-101.66-26.17-123.53-147.2-123.14l-264.86.86-22.95-23.1h-3.26v3.28l23,23.11v49.26l268.11-.76c46.84-.13,77.57,4.24,77.57,63.84v30.07l-249.54.5c-90.09.19-131.94,35.09-131.94,110s41.85,109.68,131.94,109.66l413.35-.12L1817.65,2199v363.46l246.77-.06c177.29,0,215.64-32.93,215.64-185.19S2241.71,2192.19,2064.42,2192.77ZM881.91,2510.11c-39.29,0-62.73-22-62.73-58.77s23.44-58.85,62.73-58.92l249.55-.41v117.93ZM2050.53,2500l-163.69.12V2255.62l163.69-.46c119.49-.33,159.9,16.93,159.9,122.15C2210.43,2482.88,2169.57,2499.93,2050.53,2500Z"/></g><g id="_top" data-name=" top"><path class="cls-51" d="M2275.43,2377.2c0-149.23-36.53-180.31-211-179.75l-242.18.78v359.54l242.18-.07C2238.9,2557.65,2275.43,2526.44,2275.43,2377.2Zm-393.19,127.64V2251l168.35-.47c121.33-.34,164.46,18.77,164.46,126.82s-43.13,127.31-164.46,127.4Z"/><path class="cls-52" d="M1136.08,2312.5v34.72l-254.16.5c-87.38.18-127.34,33.26-127.34,105.32s40,105,127.34,105l314.54-.09V2319.17c0-99.1-23.82-118.88-142.57-118.5l-263.52.85v43.26l263.52-.75C1102,2243.89,1136.08,2248.72,1136.08,2312.5Zm0,202.08-254.17.17c-41.53,0-67.32-24.27-67.32-63.41s25.79-63.49,67.32-63.56l254.17-.43Z"/><polygon class="cls-53" points="1537.86 2199.14 1310.5 2199.87 1310.5 2252.53 1461.87 2252.12 1537.86 2199.14"/><polygon class="cls-54" points="1707.89 2557.8 1707.89 2504.96 1555.92 2505.06 1479.91 2557.86 1707.89 2557.8"/><path class="cls-55" d="M510.42,2202.4l-473.76,1.51v354.4l62.92,0V2257.88l220.13-.61v300.95l63.34,0V2257.1l124.35-.34c70.55-.2,96.8,25.21,96.8,93.74v207.64l63.5,0V2348.36C667.7,2230.72,636.72,2202,510.42,2202.4Z"/><path class="cls-56" d="M2654.26,2195.56l-263.26.86.09,43.81,263.27-.76c48.07-.14,82.13,4.75,82.28,69.34l.08,35.16-254,.52c-87.31.18-127.18,33.68-127,106.67s40.15,106.43,127.47,106.4l314.37-.1-.57-241.89C2796.76,2215.21,2772.91,2195.17,2654.26,2195.56Zm-171.15,318.12c-41.51,0-67.34-24.58-67.42-64.23s25.64-64.32,67.15-64.39l254-.43.3,128.89Z"/><polygon class="cls-57" points="1810.57 2198.34 1724.66 2198.53 1207.82 2558.05 1293.84 2557.92 1810.57 2198.34"/></g><path class="cls-58" d="M2651.44,2167l-284.8,1.35,23,23.39,261.79-1.17c123.48-.42,150.17,21.76,150.17,124.88v246.94l23.59,23.6V2315.38C2825.2,2191.24,2796.16,2166.47,2651.44,2167Z"/><path class="cls-59" d="M1295.27,2562.58l-413.45.18c-90,0-131.85-34.79-131.85-109.67s41.81-109.79,131.85-110l249.64-.54-23.1-23.2-226.54.53c-102.63.23-154.79,45.15-154.79,133.2S779.19,2586,881.82,2586l420.57-.11Z"/><g id="_high_light" data-name=" high light"><path class="cls-60" d="M510.42,2174.64v23.13c128.59-.41,161.92,30.55,161.92,150.58l23.16,0C695.5,2208.3,659,2174.13,510.42,2174.64Z"/><path class="cls-61" d="M2654.2,2167.32l.05,23.53c120.93-.39,147.12,21.75,147.37,124.71l23.11,0C2824.43,2191.57,2795.93,2166.83,2654.2,2167.32Z"/><path class="cls-62" d="M2482.7,2316.28c-102.61.24-154.67,45.73-154.5,134.92l22.94,0c-.15-75.85,41.59-111.2,131.61-111.38Z"/><path class="cls-63" d="M1201.09,2319.16l23.13,0c0-122.38-28.47-146.81-170.33-146.32V2196C1174.92,2195.63,1201.09,2217.5,1201.09,2319.16Z"/><path class="cls-64" d="M881.92,2343.08v-23.2C779.22,2320.11,727,2365,727,2453.07l23,0C750,2378.17,791.83,2343.27,881.92,2343.08Z"/><path class="cls-65" d="M2280.06,2377.2l23.13,0c0-165.93-49-208.47-238.77-207.81v23.43C2241.71,2192.19,2280.06,2224.94,2280.06,2377.2Z"/></g></g><g id="symbol"><path d="M2381.25,297.79C2191.33,93.91,1884.78.44,1417.37,0h-.1C949.87.44,643.32,93.91,453.4,297.79c-141,151.32-229.59,360.62-229.59,644.73,0,156.92,38.83,557,354.5,763.38,189.05,123.61,433.07,203.54,839,204.09h.1c405.9-.55,649.92-80.48,839-204.09,315.68-206.41,354.51-606.46,354.51-763.38C2610.84,659.3,2521.66,448.51,2381.25,297.79Zm-963.93,1447.7c-153.64-.24-278.28-12.8-381.08-38.42C935.66,1682,851.9,1643.36,780.18,1588.92,726.6,1548.24,680,1496.83,641.65,1436.1c-32.75-51.87-59.83-111-80.5-175.91-41.95-131.64-46.48-251.44-46.48-296.83,0-66.81,4.52-130.36,13.45-188.92,109.88,59.3,214.19,89,306.28,115.26l21.4,6.1c128.27,36.77,230.24,85.2,311.76,148A611.58,611.58,0,0,1,1290,1169.41c36.62,50.61,65.94,108.31,87.13,171.48,9.66,28.81,19.75,46.67,40.19,46.67s30.54-17.86,40.2-46.67c21.19-63.17,50.5-120.87,87.12-171.48a611.63,611.63,0,0,1,122.45-125.57c81.51-62.84,183.49-111.27,311.76-148l21.4-6.11c92.08-26.23,196.4-56,306.28-115.25C2315.45,833,2320,896.55,2320,963.36c0,45.53-4.51,165.6-46.24,296.83-20.63,64.87-47.7,124.06-80.47,175.91-38.38,60.73-85.08,112.15-138.81,152.82-71.85,54.38-155.62,93-256.11,118.08-102.88,25.66-227.5,38.25-381,38.49h0Zm0-703.38c-3.7,0-10.53-4.48-22.08-25.81-49.56-91.55-115.7-170.33-196.57-234.15-61.23-48.35-131.5-88.41-208.86-119.07l-34.35-13.56c-100.78-39.7-205-80.75-302-136.79-10.86-6.28-21.54-12.71-31.78-19.12a657.72,657.72,0,0,1,66.56-95.67,604.94,604.94,0,0,1,124.69-112.4c47.39-32.08,101.54-59.09,160.94-80.28C1095,162,1240.07,141,1417.29,140.77c177.29.18,322.33,21.27,443.48,64.49,59.4,21.19,113.55,48.2,160.94,80.28a604.94,604.94,0,0,1,124.69,112.4A657.72,657.72,0,0,1,2213,493.61c-10.25,6.41-20.94,12.84-31.79,19.13-97,56-201.21,97.08-302,136.79q-17.25,6.78-34.35,13.55C1767.47,693.74,1697.2,733.8,1636,782.15c-80.87,63.83-147,142.6-196.56,234.15-11.55,21.33-18.39,25.81-22.09,25.81Z"/><path class="cls-18" d="M2542.33,572.9C2504.33,471,2448.44,380,2376.2,302.43c-94.86-101.8-217.54-174.86-375-223.36C1843.93,30.66,1653,7,1417.37,6.8,1181.71,7,990.72,30.66,833.49,79.07,676,127.57,553.3,200.63,458.44,302.43,385.93,380.25,330,471.22,292.11,572.79c-40.82,109.53-61.52,233.93-61.52,369.74,0,123.84,25.36,544.46,351.61,757.73,101.63,66.44,211.6,114.62,336.18,147.28,141.81,37.18,305,55.39,498.9,55.65h0c193.93-.26,357.13-18.47,498.94-55.65,124.58-32.66,234.54-80.84,336.18-147.28,326.25-213.27,351.61-633.89,351.61-757.73C2604.06,807.16,2583.29,682.8,2542.33,572.9ZM613.54,493.56a665.51,665.51,0,0,1,69.28-100c148.11-176.78,381.49-259.28,734.55-259.64,353,.36,586.34,82.86,734.46,259.64a665.51,665.51,0,0,1,69.28,100c.46.82.91,1.66,1.37,2.48l-2.39,1.53q-27.57,17.42-57.51,33.9c-91.14,50.14-187.75,88.19-281.18,125q-17.25,6.78-34.35,13.55c-179.17,71-314.22,188.62-401.41,349.65-11.06,20.41-19.79,29.51-28.32,29.51s-17.26-9.1-28.31-29.51C1301.82,858.63,1166.76,741,987.6,670q-16.9-6.69-34-13.4l-.4-.16c-93.43-36.79-190-74.84-281.18-125q-30-16.49-57.5-33.9l-2.4-1.53C612.62,495.22,613.07,494.38,613.54,493.56ZM2058.74,1594.4c-145.7,110.25-337.48,157.49-641.26,158h-.16c-304.29-.46-496.12-47.7-641.42-158-255.38-193.81-268.31-559.66-268.31-631q0-105.63,14.56-197.28c.16-1,.31-2,.47-3l2.64,1.46c111.92,61.52,215.85,91.14,311.53,118.39q10.82,3.07,21.48,6.13c129,37,231.69,85.74,313.84,149.06A618,618,0,0,1,1295.86,1165c37,51.13,66.62,109.4,88,173.18,10.21,30.46,19.28,41.78,33.44,41.78s23.23-11.32,33.45-41.78c21.4-63.78,51-122,88-173.18a618,618,0,0,1,123.74-126.87c82.16-63.32,184.82-112.08,313.84-149.06l21.49-6.13c95.67-27.25,199.61-56.87,311.52-118.39l2.64-1.46c.16,1,.32,2,.47,3q14.6,91.78,14.57,197.28C2327.06,1034.83,2314.12,1401.13,2058.74,1594.4Z"/><path id="in_sf_base" data-name="in sf base" class="cls-66" d="M1148.81,1733.48C899,1698.62,512.94,1566.76,512.94,932.63c0-378.78,123.36-796.25,908.89-796.25,676.94,0,904,348.55,904,794.89,0,162.55-27.77,292.13-69.82,395.62-114.08,280.78-351.28,369.59-561.08,404.15C1555.88,1754,1311.57,1756.17,1148.81,1733.48ZM2489.32,936.72c0-483.34-227.54-883.55-1064.86-883.55C545,53.17,359.65,537.93,359.65,937.69c0,669.19,449.11,831.58,775.71,870.19,165.4,19.52,404.84,18.31,558.06.29C2017.1,1770.29,2489.32,1609,2489.32,936.72Z"/><path id="in_sf_base-2" data-name="in sf base" class="cls-67" d="M1148.81,1733.48C899,1698.62,510.7,1566.76,512.94,932.63c1.38-391.89,165.78-796.25,908.89-796.25,678.2,0,894,350,904,794.89,3.57,160-27,288.36-68.36,391.39-115.94,288.83-342.21,372.08-562.54,408.38C1555.88,1754,1311.57,1756.17,1148.81,1733.48ZM2489.32,936.72c0-483.34-227.54-883.55-1064.86-883.55C545,53.17,359.65,537.93,359.65,937.69c0,669.19,449.11,836.39,775.71,875,165.4,19.53,404.24,21.06,557.46,3C2016.5,1777.85,2489.32,1609,2489.32,936.72Z"/><path class="cls-68" d="M1425.63,67.36V128c-680.87,1.63-915.21,362-915.21,818.18,0,407.34,187,628.69,386.15,721.29,228.56,106.25,494.19,87.6,369.27,135.32-30.49,11.63-55.91,30.77-165.84,17.91-323.67-37.93-737.48-197.49-737.48-869.74C362.52,467.91,589.79,67.92,1425.63,67.36Z"/><path id="out_sf_base" data-name="out sf base" class="cls-69" d="M2602.65,956.39c-3,245.35-87.34,527.65-287.46,693.68-209.91,174.17-532.34,249.73-897,249.73-361.43,0-673.33-61.81-909.2-260.07-187.44-157.56-278.45-437.6-278.45-686.45,0-271.09,87.23-558.55,314.7-732.16C762.77,55.08,1117.09,3.87,1416.87,3.87c335,0,659.64,54.77,876.18,227.6C2518,411.07,2606,679.73,2602.65,956.39Zm-118.3-9c0-449.21-262.12-883.53-1064.76-883.53C540,63.9,354.72,548.67,354.72,948.45c0,682.05,466.51,837.62,794.42,872.23,177.14,18.75,354.53,20.84,548.07-.68C1901.15,1797.34,2484.35,1698.23,2484.35,947.43Z"/><path class="cls-70" d="M379.37,725.69c40.76-116.55,91.93-309.51,242-442.7C790.59,132.87,1088,79.82,1175.3,69.72c-34.09-19.94-52-24.17-102.18-40.31C828.44,65.24,620.81,132.09,472.7,287.56,316.37,451.64,271,585.54,243.1,768.64,294.24,749.84,314.84,745.36,379.37,725.69Z"/><path id="in_up_right" data-name="in up right" class="cls-71" d="M1411.12,103.78c283.66,0,553.86,48.4,723.25,266.14-259.49-321.26-1136.06-328.83-1425.11,0C878.7,176.69,1127.38,103.78,1411.12,103.78Z"/><path class="cls-72" d="M2517.57,1366.6c14.8-32.92,13.83-30.53,20.16-51.32,2.73-9.13-2.43,5.5-8.57,17-7.89,15.09-6.23,13.92-18.31,31-12.37,17.29-16.08,19.14-39,33.55-18.32,11.59-41.11,19.09-77.34,39-9.36,5.12-13.84,8.82-32.93,33.6-13.73,17.77-28.44,38.17-36,46.89-23.57,27.17-82.71,79.6-117,109.65-29.9,26.09-23.26,25.61,19,11,37.89-13.06,94-36.43,127.21-50.16,20.95-8.62,38.19-23.22,45.1-31.35C2440.91,1507.75,2488.93,1430.33,2517.57,1366.6Z"/><path class="cls-73" d="M359.65,946.55c0-216.18,76.53-497.77,260.82-661.32,169.2-150.12,458.59-206.31,545.87-216.41-34-19.94-52-24.18-102.18-40.31C819.47,64.36,611.8,135.6,463.65,291.07,294,469.11,232,710.81,227.9,911.59,271,924.16,303.2,933.12,359.65,946.55Z"/><path class="cls-74" d="M2032.19,173.68c50.27,6.86,230.95,46.11,292.22,83.33,58.25,35.35,48.41,36.74,48.41,36.74L2264.31,335S2188.14,249.83,2032.19,173.68Z"/><path class="cls-75" d="M796.63,171c-107.58,25.51-252.13,62.32-309.21,99.45-26.89,17.48-100.89,114.23-100.89,114.23l104.88-87.35c51.14-13.44,53.77-16.14,92.83-25.54,43.44-10.47,68.18-13.81,116.06-45.87S904.22,145.46,796.63,171Z"/><path class="cls-76" d="M313,1335.92c7.2,15.19,14.22,37.88,42.08,50.25,21.62,9.64,38.86,16.8,60.48,25.22,34.71,13.54,61.3,59.79,83.89,89.64,22.21,29.22,92.93,94.61,128.19,123.43,52.7,43,149.81,101.08,224,131.27,5.35,2.14,208,86.48,185.55,106.2-6.52,5.74-193-47.14-201.67-49.72-159.85-48.59-328.94-145.53-441.42-306.94-15.2-21.87-71.26-123.68-83.82-164.87C302.42,1314.33,304,1316.49,313,1335.92Z"/><path class="cls-77" d="M2461.56,728.32c-40.81-116.48-91.95-309.46-242-442.63-169.2-150.11-466.58-203.16-553.86-213.27,34-19.93,51.92-24.19,102.18-40.31,244.69,35.81,452.36,107.07,600.51,262.54,124.39,130.59,178.94,283.13,207,407.72C2532.37,714.88,2518,714.88,2461.56,728.32Z"/><path class="cls-78" d="M2315.64,410.53,2221,484.22l-31.69-47.9c22.89-31.57,59.23-87.57,63.61-93.56s15.39-14.19,24.45-17.16,49.13-23,81.47-35.09L2400,338.67Z"/><path class="cls-79" d="M520.78,416.27,615.46,490l34.63-54.9c-22.84-31.57-59.13-87.57-63.61-93.58S571.09,327.35,562,324.35s-52.31-22-84.55-34.11l-38,47.18Z"/><path class="cls-10" d="M526.14,761.14a1.36,1.36,0,0,1-1.17-.68c-.29-.58-30.54-56.07-43.54-86.57s-41.06-108.43-41.35-109.2a1.35,1.35,0,0,1,.78-1.73,1.32,1.32,0,0,1,1.75.8c.29.78,28.3,78.61,41.3,109.06s43.1,85.79,43.39,86.37a1.25,1.25,0,0,1-1.16,1.95Z"/><path class="cls-10" d="M521.65,761.14a1.36,1.36,0,0,1-1.17-.68c-.3-.58-30.54-56.07-43.54-86.57s-41.06-108.43-41.35-109.2a1.34,1.34,0,0,1,.78-1.73,1.32,1.32,0,0,1,1.75.8c.29.78,28.29,78.61,41.3,109.06s43.1,85.79,43.39,86.37a1.25,1.25,0,0,1-1.16,1.95Z"/><path class="cls-80" d="M651,435.55S637.29,455,630.81,465.66c-6,9.81-17.7,31-17.7,31S557,460.8,511.3,420.46c-42.18-37.18-63.06-61.51-78.69-80.67,8.47-10.71,8.48-10.7,43.85-48.39,0,0-1.65,4.81,5.65,13.3C504.91,331.26,595.79,408.44,634,433.07,644.2,439.65,651,435.55,651,435.55Z"/><path class="cls-81" d="M2183.49,434.32s13.64,19.72,20.13,30.38c6,9.8,19,31.67,19,31.67s53.67-34.13,99.4-74.47c42.17-37.17,65.14-64.56,80.78-83.72-8.47-10.7-21.16-24-44-47.67,0,0,.9,2.5-6.4,11-22.8,26.56-116.27,106.93-154.51,131.56C2187.72,439.65,2183.49,434.32,2183.49,434.32Z"/><path id="wing_low_sf" data-name="wing low sf" class="cls-82" d="M1753.6,796.91a24.14,24.14,0,0,0-2.82,1.36c-56.5,28.19-328.57,326.62-335.29,333.33s-297.57-228.94-302.93-238.38S612,705.49,612,705.49L492.32,694.76s8,30.86,39,73.9c124.39,78.59,351,119.74,498.18,186,155.21,69.9,272.71,194.13,317.94,299.93,43.93,102.79,45,126.34,71.2,126.34s39.89-63,58.55-102.87c88.27-188.46,241.8-319.56,571.35-408.5,231-62.33,258.85-112.54,258.85-112.54l49.28-116.51S1823.34,766.23,1753.6,796.91Z"/><path class="cls-83" d="M473.71,662c19.82,52,48.91,101.09,48.91,101.09s66.83,38.27,140.23,62.47c101.87,33.66,220.2,58.22,310.27,78.84,107.5,24.61,171.27,53.35,244.22,102.44,117.17,78.86,141.22,138.15,181.06,204.9-22.4-56.39-24-94.28-102.12-191.27-112.7-140-185.17-172.47-346.82-232.06-55.66-20.55-133.1-51.13-226.81-86S508.59,605.74,435.93,557C435,556.34,457.34,619.29,473.71,662Z"/><path class="cls-84" d="M1559.69,859.63c45.67-50.06,89.07-85.53,162.07-130.17C1856.25,647.2,2036.32,614,2222.48,496c113.23-71.77,180.36-157.86,180.36-157.86s4.76,38.33,6.22,83.39a536.23,536.23,0,0,1-3,79.9c-3,26.42-6.77,40.85-7.35,41.26C2325,592.2,2233,658.4,2138.07,693.85s-184.29,66.32-240.69,87.35c-243.7,91.25-349.68,229.48-429.27,372-36.92,66.27-50.69,74.73-50.69,74,.19-2.73,4-157.48,4-180.17,1.75,0,9.14-5,16.37-17.59C1471.41,970.89,1506.2,918.27,1559.69,859.63Z"/><path class="cls-85" d="M2400.91,556c-73.19,48.78-199.3,107.13-293.58,142s-149.91,50.3-205.93,70.79c-157.85,57.8-258.22,118.08-374.58,261.62-78.69,97-91,149-109.4,192.23v156.68c7.06,0,12.21-3.8,16-9.79,2.64-4.09,1.12-43,1.12-76.28,0-25.24.15-32.19,13.69-56.93,10.51-19.23,22.58-40.85,30.72-53.51,66.13-102,189.87-174.8,313.26-231,109.61-49.93,269.71-82,375.55-121.21,74.56-27.6,142.06-63.57,142.06-63.57s23.46-41.59,46.35-93.91C2375.48,629,2401.89,555.35,2400.91,556Z"/><path class="cls-86" d="M1397.58,1031.18c10.62,19.08,20.19,16.6,24,16.6,0,28.19.56,175.73.65,178.5.1.78-3.11-9.49-40-75.81C1235.3,887.44,1094,836.9,961.3,787.24c-56.3-21-161.06-61.35-256.08-96.75S503.29,594.92,429.34,545.77c-4.29-2.85,1.07-18.24-1.95-44.65-3.21-28.53-2.53-60.21-1.7-85.5,1.51-45.06,10.64-78,10.64-78S499.66,424.42,612.16,496C680.84,539.81,751,571.92,832.92,606.13c104.1,43.39,188.4,68.94,290.67,131.51,82,50.17,124.79,88.78,168.82,138.49C1347.73,938.45,1377.12,994.17,1397.58,1031.18Z"/><path class="cls-87" d="M1194.72,787.8c67.21,70.75,99.8,108.12,146.37,197.71,32,61.44,38.57,66.31,78.89,222.22l-10.22-153.67s-49.11-87.35-84.08-131.27C1268.66,851.2,1256.47,836.41,1194.72,787.8Z"/><polygon class="cls-18" points="1417.32 1198.58 1417.32 1055.43 1422.49 1055.43 1417.32 1198.58"/><path class="cls-16" d="M1394,1017c10.53,19.45,18,26.55,23.33,26.55h0c5.33,0,12.8-7.1,23.34-26.55C1511.9,885.38,1635.2,747.85,1845,664.75c122.92-48.7,252.74-97,369.91-170.54a657,657,0,0,0-67.38-97c-143.87-171.71-376.08-257.26-730.13-257.62h-.07c-354.06.36-586.27,85.91-730.13,257.62a656.27,656.27,0,0,0-67.38,97c117.16,73.51,247,121.84,369.9,170.54C1199.45,747.85,1322.74,885.38,1394,1017Z"/><path class="cls-16" d="M1456.14,1340c-10,29.69-19.93,45.65-38.82,45.65h0c-18.88,0-28.86-16-38.81-45.65-88.36-263.36-297.33-381.14-521.8-445.47C755.88,865.62,646,836.65,527.06,772c-9.11,58.87-13.81,122.5-13.81,191.33,0,132.16,34.78,451.49,266.08,626.52,141.17,106.83,330.49,156.36,638,156.82h.07c307.46-.46,496.93-49.79,638-156.82,230.64-175,266.08-494.36,266.08-626.52,0-68.83-4.71-132.46-13.82-191.33-118.95,64.62-228.81,93.59-329.65,122.48C1753.46,958.84,1544.49,1076.62,1456.14,1340Z"/><path d="M2307.58,772c9.11,58.87,13.82,122.5,13.82,191.33,0,132.16-35.44,451.49-266.08,626.52-141,107-330.5,156.36-638,156.82h-.07c-307.47-.46-496.79-50-638-156.82-231.3-175-266.08-494.36-266.08-626.52,0-68.83,4.7-132.46,13.81-191.33l-2.74-1.5q-13.94,89.87-13.9,192.83c0,71.23,12.88,436.33,267.2,628.78,145.16,109.85,336.45,156.92,639.57,157.39h.13c303.64-.46,494.94-47.53,639.71-157.39,254.32-193,267.2-557.65,267.2-628.78q0-103.1-13.9-192.83Z"/><path d="M687.16,397.18C831,225.47,1063.23,139.92,1417.29,139.56h.07c354.05.36,586.26,85.91,730.13,257.62a657,657,0,0,1,67.38,97l2.46-1.56a662.68,662.68,0,0,0-67.67-97.29c-147.54-176.09-380.23-258.27-732.3-258.63h-.08c-352.06.36-584.75,82.54-732.29,258.63a662.68,662.68,0,0,0-67.67,97.29l2.46,1.56A656.27,656.27,0,0,1,687.16,397.18Z"/><path d="M1998.63,885.66l-21.48,6.13c-128.67,36.88-231,85.48-312.89,148.58a615.45,615.45,0,0,0-123.18,126.29c-36.84,50.9-66.32,108.91-87.62,172.42-10.69,31.87-20.49,43.72-36.14,43.72h0c-15.65,0-25.44-11.85-36.13-43.72-21.31-63.51-50.79-121.52-87.63-172.42a615.19,615.19,0,0,0-123.18-126.29c-81.86-63.1-184.21-111.7-312.89-148.58L836,885.66c-94.82-27-197.73-56.32-308.5-116.63-.15,1-.3,2-.46,3,119,64.62,228.82,93.59,329.65,122.48,224.47,64.33,433.44,182.11,521.8,445.47,10,29.69,19.93,45.65,38.81,45.65h0c18.89,0,28.86-16,38.82-45.65,88.35-263.36,297.32-381.14,521.79-445.47,100.84-28.89,210.7-57.86,329.65-122.48-.15-1-.3-2-.46-3C2196.35,829.34,2093.45,858.66,1998.63,885.66Z"/><path d="M2307.58,772l2.75-1.5c-.15-1-.32-2-.47-3l-2.74,1.5C2307.28,770,2307.43,771,2307.58,772Z"/><path d="M527.52,769l-2.73-1.5c-.16,1-.32,2-.47,3l2.74,1.5C527.22,771,527.37,770,527.52,769Z"/><path d="M619.78,494.21l-2.46-1.56c-.46.81-.93,1.62-1.39,2.44l2.47,1.56Z"/><path d="M2216.25,496.65l2.46-1.56-1.38-2.44-2.46,1.56Z"/><path class="cls-16" d="M1977.15,891.79c-128.67,36.88-231,85.48-312.89,148.58a615.45,615.45,0,0,0-123.18,126.29c-36.84,50.9-66.32,108.91-87.62,172.42-10.69,31.87-20.49,43.72-36.14,43.72h0c-15.65,0-25.44-11.85-36.13-43.72-21.31-63.51-50.79-121.52-87.63-172.42a615.19,615.19,0,0,0-123.18-126.29c-81.86-63.1-184.21-111.7-312.89-148.58L836,885.66c-95.6-27.22-199.42-56.81-311.23-118.13q-14.4,91.14-14.37,195.83c0,71.23,12.88,436.33,267.2,628.78,145.16,109.85,336.43,156.92,639.57,157.39h.13c303.63-.46,494.94-47.53,639.71-157.39,254.32-193,267.2-557.65,267.2-628.78q0-104.82-14.37-195.83c-111.81,61.32-215.63,90.91-311.23,118.13Z"/><path class="cls-16" d="M1417.28,136.73c-352.06.36-584.75,82.54-732.29,258.63a662.42,662.42,0,0,0-69.06,99.72q27.57,17.43,57.5,33.9c91,50.06,187.51,88.08,280.85,124.84q17.26,6.79,34.36,13.56c179.8,71.23,315.34,189.3,402.86,350.93,10.35,19.12,18.56,28,25.82,28h0c7.27,0,15.47-8.91,25.83-28,87.51-161.63,223.06-279.7,402.85-350.93q17.1-6.78,34.36-13.56C1973.71,617.06,2070.23,579,2161.22,529q30-16.49,57.49-33.9a662.36,662.36,0,0,0-69.05-99.72C2002.12,219.27,1769.4,137.09,1417.28,136.73Z"/><path class="cls-88" d="M672.06,531.46c91.15,50.15,187.76,88.2,281.19,125Q970.5,663.24,987.6,670c179.16,71,314.22,188.62,401.41,349.65,11,20.41,19.78,29.51,28.31,29.51s17.26-9.1,28.32-29.51c87.19-161,222.25-278.67,401.41-349.65q16.9-6.69,34-13.4l.39-.16c93.43-36.79,190-74.84,281.18-125q30-16.47,57.51-33.89l2.39-1.53c-.46-.82-.91-1.66-1.37-2.48a665,665,0,0,0-69.28-100c-148.12-176.78-381.5-259.28-734.55-259.65-353,.37-586.35,82.87-734.46,259.65a665,665,0,0,0-69.28,100c-.47.82-.92,1.66-1.38,2.48l2.4,1.53Q642.13,515,672.06,531.46ZM685,395.36c147.54-176.09,380.23-258.27,732.29-258.63,352.12.36,584.84,82.54,732.38,258.63a662.36,662.36,0,0,1,69.05,99.72q-27.55,17.43-57.49,33.9c-91,50.06-187.51,88.08-280.86,124.84q-17.25,6.79-34.36,13.56c-179.79,71.23-315.34,189.3-402.85,350.93-10.36,19.12-18.56,28-25.83,28h0c-7.26,0-15.47-8.91-25.82-28C1304,856.68,1168.44,738.61,988.64,667.38q-17.1-6.78-34.36-13.56C860.94,617.06,764.41,579,673.43,529q-30-16.49-57.5-33.9A662.42,662.42,0,0,1,685,395.36Z"/><path class="cls-88" d="M2312.49,766.08c-.15-1-.31-2-.47-3l-2.64,1.46c-111.91,61.52-215.85,91.14-311.53,118.39l-21.48,6.13c-129,37-231.68,85.74-313.84,149.06A618.25,618.25,0,0,0,1538.79,1165c-37,51.13-66.62,109.4-88,173.18-10.22,30.46-19.28,41.78-33.45,41.78s-23.23-11.32-33.44-41.78c-21.4-63.78-51-122-88-173.18a618,618,0,0,0-123.75-126.87C1090,974.81,987.3,926.05,858.27,889.07q-10.66-3.06-21.48-6.13c-95.68-27.25-199.61-56.87-311.53-118.39l-2.64-1.46c-.16,1-.31,2-.47,3q-14.6,91.78-14.56,197.28c0,71.47,12.93,437.78,268.32,631,145.69,110.25,337.48,157.49,641.26,158h.16c304.29-.45,496.11-47.7,641.41-158,255.38-193.81,268.32-559.66,268.32-631Q2327.06,857.73,2312.49,766.08ZM2057,1592.14C1912.26,1702,1721,1749.07,1417.32,1749.53h-.13c-303.14-.47-494.41-47.54-639.57-157.39-254.32-192.45-267.2-557.55-267.2-628.78q0-104.82,14.37-195.83C636.6,828.85,740.42,858.44,836,885.66l21.47,6.13c128.68,36.88,231,85.48,312.89,148.58a615.19,615.19,0,0,1,123.18,126.29c36.84,50.9,66.32,108.91,87.63,172.42,10.69,31.87,20.48,43.72,36.13,43.72h0c15.65,0,25.45-11.85,36.14-43.72,21.3-63.51,50.78-121.52,87.62-172.42a615.45,615.45,0,0,1,123.18-126.29c81.87-63.1,184.22-111.7,312.89-148.58l21.48-6.13c95.6-27.22,199.42-56.81,311.23-118.13q14.4,91.14,14.37,195.83C2324.23,1034.49,2311.35,1399.14,2057,1592.14Z"/><path class="cls-89" d="M432.05,342.87c2.1-9.43,4.7-8.06,3-.34-5.44,25.11-7.95,73.43-7,122.29.68,35,7.86,72.5,7.86,72.5-4.52-.36-11,1-12.8,7C417.55,487.87,414.51,421.38,432.05,342.87Z"/><path class="cls-90" d="M2405.56,346.08c-2.11-9.43-4.7-8.06-3-.34,5.43,25.1,6.89,73,5.95,121.83-.68,35-9.34,73.17-9.34,73.17,4.52-.36,10.65,5.88,12.48,11.81C2417.2,496.14,2423.09,424.59,2405.56,346.08Z"/><path d="M2609.72,942.53c0,156.74-38.79,556.31-354.17,762.47-188.87,123.47-432.66,203.3-838.18,203.85h-.1C1011.76,1908.3,768,1828.47,579.1,1705c-315.38-206.16-354.17-605.73-354.17-762.47,0-282.88,89.09-493.41,229.37-644,189.74-203.63,496-297,963-297.43h.1c467,.43,773.23,93.8,963,297.43C2521.18,449.71,2609.72,658.76,2609.72,942.53ZM1417.31,1906h.06c194.14-.26,357.57-18.49,499.62-55.74,124.88-32.74,235.11-81,337-147.65,327.44-214.05,352.89-635.9,352.89-760.1,0-136.15-20.76-260.88-61.7-370.73-38-101.92-94.14-193.2-166.91-271.3C2283.07,198.33,2160,125,2002,76.36,1844.49,27.87,1653.26,4.19,1417.28,4c-235.89.22-427.12,23.9-584.62,72.39-158,48.65-281.08,122-376.29,224.14-72.49,77.8-128.58,169.12-166.71,271.41-41.07,110.22-61.9,234.91-61.9,370.62,0,124.2,25.45,546.05,352.89,760.1,101.89,66.61,212.13,114.91,337,147.65,142.05,37.25,305.47,55.48,499.62,55.74Z"/><path class="cls-91" d="M1417.28,1906c-194.15-.26-357.57-18.49-499.62-55.74-124.88-32.74-235.12-81-337-147.65-327.44-214.05-352.89-635.9-352.89-760.1,0-135.71,20.83-260.4,61.9-370.62C327.79,469.62,383.88,378.3,456.37,300.5,551.58,198.33,674.66,125,832.66,76.36,990.16,27.87,1181.39,4.19,1417.28,4c236,.22,427.21,23.9,584.71,72.39,158,48.65,281.08,122,376.29,224.14,72.77,78.1,128.92,169.38,166.91,271.3,40.94,109.85,61.7,234.58,61.7,370.73,0,124.2-25.45,546.05-352.89,760.1-101.9,66.61-212.13,114.91-337,147.65-142,37.25-305.48,55.48-499.62,55.74h-.09Zm.08-2.83c193.9-.26,357.1-18.46,498.91-55.65,124.58-32.66,234.54-80.84,336.18-147.28,326.25-213.27,351.61-633.89,351.61-757.73,0-135.81-20.7-260.21-61.52-369.74-37.86-101.57-93.82-192.54-166.34-270.36-94.86-101.8-217.54-174.86-375-223.36C1843.93,30.66,1652.94,7,1417.28,6.8,1181.68,7,990.72,30.66,833.5,79.07,676,127.57,553.3,200.63,458.44,302.43,386.2,380,330.31,471,292.32,572.9c-41,109.9-61.73,234.26-61.73,369.63,0,123.84,25.36,544.46,351.61,757.73,101.63,66.44,211.6,114.62,336.18,147.28,141.81,37.19,305,55.39,498.93,55.65Z"/><path class="cls-10" d="M2398.19,566.32a1.36,1.36,0,0,0-.79-1.73,1.33,1.33,0,0,0-1.75.82c-.29.78-28,78.71-40.89,109.2s-42.78,86-43.07,86.54a1.32,1.32,0,0,0,.54,1.85,1.44,1.44,0,0,0,.63.09,1.36,1.36,0,0,0,1.17-.68s26.6-47.16,42.95-86.84S2398.19,566.32,2398.19,566.32Z"/><path class="cls-10" d="M436.8,566.32a1.36,1.36,0,0,1,.79-1.73,1.33,1.33,0,0,1,1.75.82c.29.78,28,78.71,40.89,109.2s42.78,86,43.07,86.54a1.32,1.32,0,0,1-.54,1.85,1.44,1.44,0,0,1-.63.09,1.36,1.36,0,0,1-1.17-.68s-26.6-47.16-43-86.84S436.8,566.32,436.8,566.32Z"/><path class="cls-92" d="M2091.75,1567.25c16.38-14.59,13.11-13.84-7.39,3.16-29.09,24.13-54.16,44.33-104.86,72.41-17.54,9.1-34.33,19.09-53.18,26.77-166.88,68.17-279.86,75.5-478.71,81.67q-7.59.23-15.14.43-7.54,0-15.15,0c-164.71,0-338.55-15.35-480.66-68.33-19.08-7.09-38.19-16.45-56-25-38.3-21.2-70.34-40.66-103-66.26-21-16.42-26.57-18.44-9.74-4.36-11.77-8.45-9.69-6.49,6.11,8,124.68,114,264.09,159.79,473.94,174.28,57.55,5.09,119,6.7,185,5.11,66-.45,127.38-4,184.74-10.84,209.29-21,347.16-71.07,468.24-188.89C2101.23,1560.47,2103.25,1558.45,2091.75,1567.25Z"/><path class="cls-93" d="M2435.4,611.69c-6.76-19.78-14.29-39.36-22.39-58.22-2.78-6.47-7.83-10.17-13.87-10.17a16.08,16.08,0,0,0-9,3C2242.87,646.4,2088.7,700.75,1964.8,744.42c-111.07,39.16-216,76.14-285,125.89-50.66,36.52-102,87-152.5,150-36.29,45.26-74.25,108.28-110,182-35.72-73.7-73.69-136.72-110-182-50.54-63-101.85-113.51-152.5-150-69-49.75-173.94-86.74-285-125.89C746,700.75,591.77,646.4,444.51,546.25a16.11,16.11,0,0,0-9-3c-6,0-11.09,3.7-13.86,10.17-8.1,18.85-15.63,38.44-22.4,58.22-36,105.36-53.55,223.23-53.55,360.34,0,144.34,30.87,501.06,316.75,695.69C751,1728,850.89,1771.12,967.93,1799.61c123,29.92,268.7,44.73,445.42,45.24v0h7.94c176.72-.51,322.45-15.32,445.42-45.24,117-28.49,217-71.63,305.49-131.89C2458.09,1473.09,2489,1116.37,2489,972,2489,834.92,2471.44,717.05,2435.4,611.69Zm-264.8,1053.7c-88.23,60.07-187.86,103.07-304.56,131.47-123.41,30-269.83,44.81-447.58,45.17h-2.27c-177.76-.36-324.18-15.13-447.58-45.17-116.71-28.4-216.33-71.4-304.57-131.47C379.27,1471.52,348.53,1115.92,348.53,972c0-136.79,17.46-254.37,53.4-359.44,6.74-19.7,14.24-39.22,22.31-58,2.31-5.38,6.41-8.46,11.26-8.46a13.28,13.28,0,0,1,7.41,2.46c147.57,100.36,301.94,154.78,426,198.5,110.88,39.09,215.61,76,284.29,125.52,54.3,39.13,105.42,91.46,152,149.5,40.75,50.83,79.51,118.36,112.19,186.47,32.68-68.11,71.45-135.64,112.19-186.47,46.53-58,97.66-110.36,152-149.5,68.69-49.52,173.41-86.43,284.29-125.52,124-43.73,278.41-98.14,426-198.5a13.22,13.22,0,0,1,7.4-2.46c4.85,0,9,3.08,11.26,8.46,8.07,18.79,15.58,38.31,22.32,58,35.93,105.08,53.4,222.65,53.4,359.44C2486.12,1115.92,2455.37,1471.52,2170.6,1665.39Z"/><path class="cls-94" d="M583.83,339.76a3.27,3.27,0,0,1-2.31-.93,58.35,58.35,0,0,0-10.83-8.22,3.74,3.74,0,0,1-1.81-2.8c-.36-3-2.1-2.83,6.54-11.23l1-1c12.28-12.51,27.64-26.79,42.15-39.18a745.11,745.11,0,0,1,82.49-61.79C757.74,178,822.22,147.09,892.7,122.75,964,98.11,1044,79.34,1130.3,67,1216.15,54.69,1311.23,48.32,1413,48h0l8.79,0v0c101.83.27,197,6.64,282.92,18.94C1791,79.34,1871,98.11,1942.29,122.75c70.48,24.34,134.95,55.25,191.63,91.87a745.62,745.62,0,0,1,82.5,61.8c14.16,12.1,30,26.83,42.34,39.41.25.26.68.66,1.22,1.17,7.76,7.39,5.74,8,5.41,10.84a3.77,3.77,0,0,1-1.85,2.86,57.94,57.94,0,0,0-10.67,8.66,3.33,3.33,0,0,1-2.36.94h0c-3.4,0-5.74-6.84-9.56-10.95C2066.55,156,1797.2,71.62,1417.49,71.25c-379.85.37-649.12,84.63-823.18,257.61C589.2,334.36,587,339.76,583.83,339.76Z"/><path class="cls-95" d="M2399.22,561.59l-1.34-3.17-2.85,1.93c-50.72,34.34-107.33,65.23-195.41,106.65-72.51,34.1-152,62.23-228.85,89.45-109.83,38.88-213.57,75.61-280.51,124.07-102.62,74.3-198.37,196.92-262.69,336.41-4.64,10.08-6.75,12.68-10.25,12.68s-5.6-2.6-10.25-12.68c-64.32-139.49-160.06-262.11-262.69-336.41-66.93-48.46-170.67-85.19-280.49-124.07C787,729.23,707.53,701.09,635,667,547,625.58,490.34,594.69,439.62,560.35l-2.85-1.93-1.35,3.17C385.91,678.34,361.84,812.25,361.84,971c0,142,30.18,492.67,309.72,683.19C846,1773,1075.73,1826.34,1416.47,1827h1.7c340.75-.67,570.53-54,744.92-172.84C2442.62,1463.65,2472.8,1112.93,2472.8,971,2472.8,812.25,2448.73,678.33,2399.22,561.59ZM2159.9,1649.49c-173.55,118.28-402.57,171.29-742.57,171.86-340-.57-569-53.58-742.58-171.86C397.44,1460.5,367.51,1112,367.51,971c0-156.52,23.48-288.72,71.79-404,50.25,33.74,106.61,64.38,193.31,105.15C705.38,706.34,785,734.53,862,761.79c109.44,38.74,212.8,75.34,279.07,123.32,101.86,73.75,197,195.55,260.87,334.19,4.58,9.94,7.9,16.83,15.39,16.83s10.81-6.89,15.4-16.83c63.92-138.64,159-260.45,260.87-334.19,66.27-48,169.63-84.58,279.07-123.33,77-27.25,156.6-55.44,229.37-89.66,86.71-40.77,143.06-71.41,193.31-105.15,48.31,115.28,71.8,247.49,71.8,404C2467.14,1112,2437.2,1460.5,2159.9,1649.49Z"/><path class="cls-96" d="M2399.22,561.59l-1.34-3.17-2.85,1.93c-50.72,34.34-107.33,65.23-195.41,106.65-72.51,34.1-152,62.23-228.85,89.45-109.83,38.88-213.57,75.61-280.51,124.07-102.62,74.3-198.37,196.92-262.69,336.41-4.64,10.08-6.75,12.68-10.25,12.68s-5.6-2.6-10.25-12.68c-64.32-139.49-160.06-262.11-262.69-336.41-66.93-48.46-170.67-85.19-280.49-124.07C787,729.23,707.53,701.09,635,667,547,625.58,490.34,594.69,439.62,560.35l-2.85-1.93-1.35,3.17C385.91,678.34,361.84,812.25,361.84,971c0,142,30.18,492.67,309.72,683.19C846,1773,1075.73,1826.34,1416.47,1827h1.7c340.75-.67,570.53-54,744.92-172.84C2442.62,1463.65,2472.8,1112.93,2472.8,971,2472.8,812.25,2448.73,678.33,2399.22,561.59ZM2159.9,1649.49c-173.55,118.28-402.57,171.29-742.57,171.86-340-.57-569-53.58-742.58-171.86C397.44,1460.5,367.51,1112,367.51,971c0-156.52,23.48-288.72,71.79-404,50.25,33.74,106.61,64.38,193.31,105.15C705.38,706.34,785,734.53,862,761.79c109.44,38.74,212.8,75.34,279.07,123.32,101.86,73.75,197,195.55,260.87,334.19,4.58,9.94,7.9,16.83,15.39,16.83s10.81-6.89,15.4-16.83c63.92-138.64,159-260.45,260.87-334.19,66.27-48,169.63-84.58,279.07-123.33,77-27.25,156.6-55.44,229.37-89.66,86.71-40.77,143.06-71.41,193.31-105.15,48.31,115.28,71.8,247.49,71.8,404C2467.14,1112,2437.2,1460.5,2159.9,1649.49Z"/><path class="cls-18" d="M2432.72,607.23c-6.74-19.79-14.25-39.4-22.32-58.27-2.31-5.4-6.41-8.5-11.26-8.5a13.24,13.24,0,0,0-7.4,2.47c-147.58,100.8-301.95,155.45-426,199.37-110.88,39.26-215.6,76.33-284.29,126.06-54.29,39.31-105.42,91.86-152,150.16-40.74,51-79.51,118.87-112.19,187.28-32.68-68.41-71.44-136.23-112.19-187.28-46.53-58.3-97.65-110.85-152-150.16-68.68-49.73-173.41-86.81-284.29-126.06-124-43.92-278.41-98.57-426-199.37a13.29,13.29,0,0,0-7.41-2.47c-4.85,0-8.95,3.1-11.26,8.5-8.07,18.87-15.57,38.48-22.31,58.27-35.94,105.53-53.4,223.61-53.4,361,0,144.51,30.74,501.67,315.51,696.38,88.24,60.33,187.86,103.52,304.57,132,123.4,30.17,269.82,45,447.58,45.37h2.27c177.75-.36,324.17-15.2,447.58-45.37,116.7-28.52,216.33-71.71,304.56-132,284.77-194.71,315.52-551.87,315.52-696.38C2486.12,830.84,2468.65,712.76,2432.72,607.23ZM2162.93,1653.94c-174.49,118.92-404.45,172.21-745.61,172.79-341.16-.58-571.11-53.87-745.6-172.79-279.43-190.44-309.59-541-309.59-683,0-159.94,24.46-294.76,74.77-412.14,51.33,35,108.73,66.43,198,108.41,72.52,34.1,152,62.25,228.89,89.47,109.81,38.87,213.53,75.59,280.42,124,102.59,74.27,198.31,196.85,262.6,336.3,4.25,9.22,6.36,12.21,9.38,12.75v.1h2.27v-.1c3-.54,5.12-3.53,9.37-12.75,64.3-139.45,160-262,262.6-336.3,66.9-48.44,170.62-85.16,280.43-124,76.87-27.21,156.36-55.35,228.88-89.46,89.28-42,146.68-73.4,198-108.41,50.32,117.38,74.78,252.2,74.78,412.14C2472.52,1112.89,2442.35,1463.5,2162.93,1653.94Z"/><path class="cls-18" d="M2357.05,289.07c-15.51,6.71-66.31,23.63-87.53,30.64l-.59.2a14.15,14.15,0,0,1-4.35.68,11.22,11.22,0,0,1-8-2.9c-12.32-12.55-28-27.12-42.17-39.25a742.23,742.23,0,0,0-82.19-61.57c-56.49-36.49-120.75-67.3-191-91.57C1870,100.71,1790.25,82,1704.11,69.66c-86.56-12.4-182.5-18.76-285.18-18.92h-3.31c-102.63.17-198.54,6.53-285.09,18.92C1044.39,82,964.62,100.71,893.45,125.3c-70.26,24.27-134.53,55.08-191,91.57a742.77,742.77,0,0,0-82.19,61.56c-14.45,12.35-29.75,26.57-42,39a14.23,14.23,0,0,1-9,3.72,11.81,11.81,0,0,1-4-.8l-.63-.21c-21.21-7-71.34-23.69-86.81-30.39l-1,1.2c4.83,2.09,14.36,7.31,25.71,12.4l.12.06c22.77,10.22,51.12,22.95,56.55,24.75a42.27,42.27,0,0,1,8.15,3.84,61.45,61.45,0,0,1,11.37,8.64,27.73,27.73,0,0,1,2.84,3.17c2.65,3.59,57.72,77.46,68.45,92.13l.95-1.32c-.44-.66-45.63-67.91-59.48-87.9-4.15-6-3.47-15.65.54-20C766.72,153.2,1036.66,68.66,1417.32,68.28c380.55.38,650.79,85.33,825.49,259,4.05,4.36,4.14,13.6,0,19.59-12.85,18.54-51.74,76.23-59.37,87.56l1.16,1.52.92-1.27c10.73-14.67,64.15-87.73,66.82-91.32a30.31,30.31,0,0,1,2.91-3.28,62.62,62.62,0,0,1,11.22-9.07,59.13,59.13,0,0,1,9.29-4.8c5.43-1.8,33.17-14.4,55.95-24.63,11.39-5.12,22.24-8.92,27.1-11Z"/><path class="cls-16" d="M857.49,891.79c128.68,36.88,231,85.48,312.89,148.58a615.19,615.19,0,0,1,123.18,126.29c36.84,50.9,66.32,108.91,87.63,172.42,10.69,31.87,20.48,43.72,36.13,43.72h0c15.65,0,25.45-11.85,36.14-43.72,21.3-63.51,50.78-121.52,87.62-172.42a615.45,615.45,0,0,1,123.18-126.29c81.87-63.1,184.22-111.7,312.89-148.58l21.48-6.13c95.6-27.22,199.42-56.81,311.23-118.13q14.4,91.14,14.37,195.83c0,71.23-12.88,436.33-267.2,628.78-145.17,109.85-336.44,156.92-639.57,157.39h-.14c-303.62-.46-494.94-47.53-639.71-157.39-254.31-193-267.19-557.65-267.19-628.78q0-104.82,14.37-195.83C636.6,828.85,740.42,858.44,836,885.66Z"/><path class="cls-16" d="M1417.36,136.73c352.07.36,584.76,82.54,732.3,258.63a662.36,662.36,0,0,1,69.05,99.72q-27.55,17.43-57.49,33.9c-91,50.06-187.51,88.08-280.86,124.84q-17.25,6.79-34.36,13.56c-179.79,71.23-315.34,189.3-402.85,350.93-10.36,19.12-18.56,28-25.83,28h0c-7.26,0-15.47-8.91-25.82-28C1304,856.68,1168.44,738.61,988.64,667.38q-17.1-6.78-34.36-13.56C860.94,617.06,764.41,579,673.43,529q-30-16.49-57.5-33.9A662.42,662.42,0,0,1,685,395.36C832.53,219.27,1065.25,137.09,1417.36,136.73Z"/><path class="cls-97" d="M2220.09,497.57l2.39-1.53c-.46-.82-.91-1.66-1.37-2.48a665,665,0,0,0-69.28-100c-148.12-176.78-381.5-259.28-734.46-259.65-353.06.37-586.44,82.87-734.55,259.65a665,665,0,0,0-69.28,100c-.47.82-.92,1.66-1.38,2.48l2.4,1.53q27.57,17.42,57.5,33.89c91.14,50.15,187.75,88.2,281.18,125l.4.16q17,6.72,34,13.4c179.16,71,314.22,188.62,401.41,349.65,11,20.41,19.78,29.51,28.31,29.51s17.26-9.1,28.32-29.51c87.19-161,222.24-278.67,401.41-349.65q17.09-6.76,34.35-13.55c93.43-36.8,190-74.85,281.18-125Q2192.55,515,2220.09,497.57Zm-1.38-2.49q-27.55,17.43-57.49,33.9c-91,50.06-187.51,88.08-280.86,124.84q-17.25,6.79-34.36,13.56c-179.79,71.23-315.34,189.3-402.85,350.93-10.36,19.12-18.56,28-25.83,28h0c-7.26,0-15.47-8.91-25.82-28C1304,856.68,1168.44,738.61,988.64,667.38q-17.1-6.78-34.36-13.56C860.94,617.06,764.41,579,673.43,529q-30-16.49-57.5-33.9A662.42,662.42,0,0,1,685,395.36c147.54-176.09,380.26-258.27,732.37-258.63,352.07.36,584.76,82.54,732.3,258.63A662.36,662.36,0,0,1,2218.71,495.08Z"/><path class="cls-97" d="M507.59,963.36c0,71.37,12.93,437.22,268.31,631,145.3,110.27,337.13,157.52,641.42,158h.16c303.78-.47,495.56-47.71,641.26-158,255.38-193.26,268.32-559.57,268.32-631q0-105.63-14.57-197.28c-.15-1-.31-2-.47-3l-2.64,1.46c-111.91,61.52-215.85,91.14-311.52,118.39l-21.49,6.13c-129,37-231.68,85.74-313.84,149.06A618,618,0,0,0,1538.79,1165c-37,51.13-66.62,109.4-88,173.18-10.22,30.46-19.28,41.78-33.45,41.78s-23.23-11.32-33.44-41.78c-21.4-63.78-51-122-88-173.18a618,618,0,0,0-123.75-126.87C1090,974.81,987.3,926.05,858.27,889.07q-10.66-3.06-21.48-6.13c-95.68-27.25-199.61-56.87-311.53-118.39l-2.64-1.46c-.16,1-.31,2-.47,3Q507.55,857.87,507.59,963.36Zm2.83,0q0-104.82,14.37-195.83C636.6,828.85,740.42,858.44,836,885.66l21.47,6.13c128.68,36.88,231,85.48,312.89,148.58a615.19,615.19,0,0,1,123.18,126.29c36.84,50.9,66.32,108.91,87.63,172.42,10.69,31.87,20.48,43.72,36.13,43.72h0c15.65,0,25.45-11.85,36.14-43.72,21.3-63.51,50.78-121.52,87.62-172.42a615.45,615.45,0,0,1,123.18-126.29c81.87-63.1,184.22-111.7,312.89-148.58l21.48-6.13c95.6-27.22,199.42-56.81,311.23-118.13q14.4,91.14,14.37,195.83c0,71.23-12.88,436.33-267.2,628.78-145.17,109.85-336.44,156.92-639.57,157.39h-.14c-303.62-.46-494.94-47.53-639.71-157.39C523.3,1399.14,510.42,1034.49,510.42,963.36Z"/><path class="cls-98" d="M1417.33,1906h0c-194.15-.26-357.57-18.49-499.62-55.74-124.88-32.74-235.12-81-337-147.65-327.44-214.05-352.89-635.9-352.89-760.1,0-136.15,20.76-260.88,61.7-370.73,38-101.92,94.14-193.2,166.91-271.3C551.58,198.33,674.66,125,832.66,76.36,990.16,27.87,1181.39,4.19,1417.37,4c235.89.22,427.12,23.9,584.61,72.39,158,48.65,281.09,122,376.3,224.14,72.49,77.8,128.58,169.12,166.7,271.41,41.08,110.22,61.91,234.91,61.91,370.62,0,124.2-25.45,546.05-352.89,760.1-101.9,66.61-212.13,114.91-337,147.65-142,37.25-305.48,55.48-499.62,55.74Zm0-2.83c193.93-.26,357.13-18.46,498.94-55.65,124.58-32.66,234.54-80.84,336.18-147.28,326.25-213.27,351.61-633.89,351.61-757.73,0-135.37-20.77-259.73-61.73-369.63C2504.33,471,2448.44,380,2376.2,302.43c-94.86-101.8-217.54-174.86-375-223.36C1843.93,30.66,1653,7,1417.37,6.8,1181.71,7,990.72,30.66,833.49,79.07,676,127.57,553.3,200.63,458.44,302.43,385.93,380.25,330,471.22,292.11,572.79c-40.82,109.53-61.52,233.93-61.52,369.74,0,123.84,25.36,544.46,351.61,757.73,101.63,66.44,211.6,114.62,336.18,147.28,141.81,37.19,305,55.39,498.9,55.65Z"/></g></svg>