<svg viewBox="0 0 25 26" fill="currentColor" style="margin-right: 4px; flex-shrink: 0; height: 22px; width: 22px;"><path class="st0" d="M12.5,11.9c-1.3,0-2.3-1-2.3-2.2c0-1.2,1.1-2.2,2.3-2.2c1.3,0,2.3,1,2.3,2.2C14.8,10.9,13.8,11.9,12.5,11.9z
 M12.5,3.5L12.5,3.5h-0.2C8.9,3.5,6,6.3,6,9.6c0,0.1,0,0.5,0.1,1c0,0.3,0.1,0.6,0.3,1c0.2,0.4,0.2,0.6,0.5,1.1
 c1.8,3.3,4.9,8.6,5.1,8.9s0.6,0.9,0.6,0.9s0.5-0.7,0.6-0.9s3.3-5.6,5.1-8.9c0.2-0.4,0.3-0.7,0.5-1.1c0.2-0.4,0.2-0.7,0.3-1
 c0.1-0.5,0.1-0.9,0.1-1C18.9,6.3,16.1,3.5,12.5,3.5z"></path></svg>